<svg width="27" height="27" viewBox="0 0 27 27" fill="none" xmlns="http://www.w3.org/2000/svg">
<path d="M20.8192 20.8228L8.31216 8.31578L8.69661 4.08203L12.9299 4.46692L21.7539 19.7932" stroke="#161616" stroke-linecap="round" stroke-linejoin="round"/>
<path d="M12.9295 4.46397L13.9298 1L17.6159 2.97143L22.8398 18.8568L18.8136 22.8826" stroke="#161616" stroke-linecap="round" stroke-linejoin="round"/>
<path d="M8.2995 8.33594L4.0662 8.72082L4.45108 12.9541L19.7773 21.7781" stroke="#161616" stroke-linecap="round" stroke-linejoin="round"/>
<path d="M4.46131 12.9453L0.996892 13.9461L2.96966 17.6309L18.8542 22.8544L20.6367 24.6369" stroke="#161616" stroke-linecap="round" stroke-linejoin="round"/>
<path d="M24.4613 20.8099L24.969 21.3172C25.5018 21.8081 25.8194 22.4894 25.8526 23.2131C25.8858 23.9369 25.632 24.6444 25.1464 25.182L25.0009 25.3279C24.4633 25.8134 23.7559 26.0671 23.0322 26.0339C22.3086 26.0007 21.6274 25.6832 21.1365 25.1505L20.6284 24.6433L24.4613 20.8099ZM24.4613 20.8099L22.9021 19.1523" stroke="#161616" stroke-miterlimit="10"/>
<path d="M20.6875 12.4922L12.4617 20.7185" stroke="#161616" stroke-miterlimit="10"/>
</svg>
