<?xml version="1.0" encoding="utf-8"?>
<!-- Generator: Adobe Illustrator 27.7.0, SVG Export Plug-In . SVG Version: 6.00 Build 0)  -->
<svg version="1.1" id="Calque_1" xmlns="http://www.w3.org/2000/svg" xmlns:xlink="http://www.w3.org/1999/xlink" x="0px" y="0px"
	 viewBox="0 0 36.5 36.5" style="enable-background:new 0 0 36.5 36.5;" xml:space="preserve">
<style type="text/css">
	.st0{fill:#DF231A;}
</style>
<path class="st0" d="M32.2,18.8c-0.1-0.1-0.2-0.2-0.3-0.3l-3.4-1l0.4-4.2c0-0.3-0.2-0.5-0.4-0.5l-4.3-0.4l-0.4-4.3
	c0-0.1-0.1-0.2-0.2-0.3c-0.1-0.1-0.2-0.1-0.3-0.1l-4.2,0.4l-1-3.4c0-0.1-0.1-0.2-0.3-0.3c-0.1,0-0.1,0-0.2,0c-0.1,0-0.1,0-0.2,0.1
	l-4,2.1c-0.1,0.1-0.2,0.2-0.2,0.3L7.4,24.2c-0.1,0.2,0,0.4,0.1,0.5l4,4l-1.2,1.2l-4.1-4.1l-0.9,0.9c-0.7,0.7-1.1,1.5-1.1,2.5
	c0,0.9,0.3,1.8,0.9,2.4l0.2,0.2c0.6,0.6,1.4,0.9,2.3,0.9c0.1,0,0.1,0,0.2,0c0.7-0.1,1.6-0.5,2.3-1.1l0.6-0.6c0,0,0,0,0,0l1.7-1.8
	c0,0,0.1,0,0.1-0.1l17.2-5.7c0.1,0,0.2-0.1,0.3-0.2l2.2-4C32.3,19.1,32.3,18.9,32.2,18.8z M9.4,30.9c-0.5,0.5-1.2,0.8-1.8,0.8
	c-0.7,0.1-1.3-0.2-1.7-0.6l-0.2-0.2c-0.4-0.4-0.7-1.1-0.6-1.7c0-0.7,0.3-1.3,0.8-1.8l0.2-0.2l3.5,3.5L9.4,30.9z M23.9,13.4l4,0.4
	l-0.4,3.9l-10.3,6l-0.1-0.1l-1.7-1.7l0,0L23.9,13.4z M14.6,21.3L14.6,21.3L14.6,21.3L14.6,21.3z M22.9,8.7l0.4,3.9l-8.6,8.6L13,19.5
	l6-10.4L22.9,8.7z M14,7.2l3.4-1.8l0.8,3.2l-5.9,10.2l-1.6-1.6l0,0l0-0.1L14,7.2z M9.5,25.3l2.9-5.1l-0.7-0.7l-2.8,5.2l-0.5-0.5l2-6
	l1.4,1.4l0.7,0.7l1.5,1.5l-4,4L9.5,25.3z M11.2,27l-0.5-0.5l4-4l0,0l0,0l0,0l0,0l1.6,1.6L11.2,27z M12.4,28.2l-0.5-0.5l5.1-2.9
	l1.4,1.4L12.4,28.2z M29.2,22.8L19.5,26l-0.1-0.1l0,0l-1.6-1.6L28,18.5l3,0.9L29.2,22.8z"/>
</svg>
