<svg width="27" height="27" xmlns="http://www.w3.org/2000/svg"><path style="fill:#000;stroke-width:.00675011" d="M22.95 26.53a3.266 3.266 0 0 1-1.876-.751 43.66 43.66 0 0 1-1.148-1.138c0-.003-.288-.294-.64-.646-.588-.589-.642-.641-.682-.66a.676.676 0 0 1-.085-.05c-.038-.027-.126-.057-1.33-.453l-1.367-.449-6.557-2.156c-4.791-1.576-6.495-2.138-6.535-2.16a.54.54 0 0 1-.19-.183l-1.012-1.886C.88 14.788.537 14.138.523 14.1a.338.338 0 0 1-.02-.155c0-.088.002-.104.019-.152a.512.512 0 0 1 .288-.31c.024-.009.73-.214 1.57-.457.838-.242 1.527-.442 1.53-.445.003-.002-.073-.874-.17-1.938-.191-2.111-.181-1.975-.146-2.082a.508.508 0 0 1 .344-.323c.025-.007.82-.082 1.975-.187l1.936-.178.177-1.928c.096-1.06.177-1.937.179-1.95a.542.542 0 0 1 .116-.243.513.513 0 0 1 .367-.169c.027 0 .902.078 1.943.172 1.042.095 1.903.173 1.914.172h.02l.446-1.543c.245-.85.452-1.56.46-1.58a.505.505 0 0 1 .524-.3c.083.012.125.03.335.143l1.864.996c.915.489 1.68.9 1.7.914a.515.515 0 0 1 .18.216c.009.02 1.168 3.544 2.578 7.83l2.62 7.967c.048.147.058.186.065.248l.008.075.767.815c.567.602.848.895 1.078 1.123.304.302.396.401.506.547.326.43.545.95.623 1.479.027.188.03.234.03.484 0 .194-.003.268-.012.347a3.28 3.28 0 0 1-.699 1.686 3.95 3.95 0 0 1-.445.446 3.26 3.26 0 0 1-1.8.707 5.648 5.648 0 0 1-.443.002zm.412-1.002c.657-.06 1.259-.408 1.606-.927.215-.32.341-.671.378-1.049a2.246 2.246 0 0 0-.728-1.88l-.156-.156-1.564 1.564-1.564 1.564.165.164c.25.25.407.367.65.489.26.13.542.21.832.234.066.006.31.004.381-.003zm.379-4.754-.52-.554c-.273-.29-.498-.528-.502-.53-.004 0-.717.709-1.585 1.577l-1.579 1.579.542.541.541.542 1.565-1.564 1.564-1.564zm-4.692 1.162c-.007-.007-4.498-2.59-4.502-2.59-.002 0-.269.265-.593.589l-.589.589 2.672.878 2.67.88.173-.172c.094-.094.17-.173.169-.174zm.914-.91.176-.175-1.775-1.775-1.776-1.775-.654.655c-.511.51-.653.656-.645.66.09.055 4.487 2.585 4.492 2.586.004 0 .086-.079.182-.175zm-6.99-1.528c.37-.37.67-.673.668-.675-.013-.013-9.256-5.33-9.266-5.33-.007 0-.1.026-.207.057a470.775 470.775 0 0 1-1.731.5c-.6.174-.703.204-.704.207-.001.002.354.668.79 1.481l.79 1.478.144.049 1.285.423 4.34 1.428c1.76.579 3.204 1.053 3.21 1.053.006 0 .312-.302.681-.671zm8.205.295a4152.473 4152.473 0 0 1-2.586-4.49c-.002-.002-.293.287-.649.643l-.646.646 1.775 1.775 1.776 1.775.168-.168c.145-.145.168-.17.162-.181zm.917-.898.175-.175-.818-2.487-.879-2.671-.06-.185-.594.593c-.326.326-.593.596-.593.599 0 .008 2.587 4.5 2.591 4.5.002 0 .082-.078.178-.174zM15.13 17.34l.75-.75-3.87-3.869-3.87-3.87-1.762.16c-.97.089-1.764.162-1.766.164-.003.004.31 3.466.316 3.473.001.003 1.002.58 2.224 1.284l4.718 2.717c1.374.791 2.5 1.44 2.504 1.44.004 0 .344-.337.756-.749zm.224-7.662-2.724-4.73c-.004-.006-.465-.05-1.742-.167a527.82 527.82 0 0 0-1.739-.156l-.16 1.75-.159 1.748 3.88 3.88 3.878 3.879.742-.742.742-.742zm4.131 3.307.677-.677-1.48-4.496-1.478-4.496-1.48-.792a190.63 190.63 0 0 0-1.485-.789c-.003.004-.766 2.646-.768 2.659 0 .01 5.327 9.267 5.334 9.267.002 0 .308-.304.68-.676z"/></svg>
