<svg width="26" height="26" viewBox="0 0 26 26" fill="none" xmlns="http://www.w3.org/2000/svg">
<path d="M20.375 3.57031C20.375 3.57031 21.0917 12.7716 4.08203 20.9535" stroke="#161616" stroke-miterlimit="10"/>
<path d="M16.8555 11.7461C19.3831 14.5544 21.0041 18.0603 21.5064 21.8051" stroke="#161616" stroke-miterlimit="10"/>
<path d="M13.2266 8.53516C13.9916 9.07478 14.7219 9.66195 15.4132 10.2932" stroke="#161616" stroke-miterlimit="10"/>
<path d="M4.65234 4.58594C7.06046 5.18889 9.36742 6.14086 11.5 7.41163" stroke="#161616" stroke-miterlimit="10"/>
<path d="M13.842 1.28906C14.2661 2.47194 14.428 3.73286 14.3164 4.9845C14.2048 6.23613 13.8225 7.44855 13.1959 8.53778C13.1959 8.53778 9.10555 14.6383 1.64062 10.3325" stroke="#161616" stroke-miterlimit="10"/>
<path d="M25.1031 13.6294C25.1031 13.6294 21.3713 12.3355 18.357 15.925C18.357 15.925 15.558 19.2261 18.0702 24.0352" stroke="#161616" stroke-miterlimit="10"/>
<path d="M25.2667 13.1309C25.2672 15.5306 24.5561 17.8766 23.2233 19.8722C21.8905 21.8678 19.9958 23.4234 17.7789 24.3422C15.562 25.261 13.1225 25.5018 10.7687 25.0341C8.41499 24.5664 6.25279 23.4113 4.55556 21.7147C2.85833 20.0182 1.70229 17.8565 1.23363 15.5029C0.764979 13.1494 1.00476 10.7097 1.92265 8.49244C2.84053 6.27517 4.39531 4.37988 6.39035 3.04623C8.3854 1.71259 10.7311 1.0005 13.1309 1C14.7243 0.999398 16.3023 1.31272 17.7746 1.92208C19.247 2.53144 20.5848 3.42489 21.7118 4.5514C22.8388 5.67791 23.7328 7.01541 24.3427 8.48749C24.9527 9.95958 25.2667 11.5374 25.2667 13.1309V13.1309Z" stroke="#161616" stroke-miterlimit="10"/>
</svg>
