<svg width="26" height="26" xmlns="http://www.w3.org/2000/svg"><path style="fill:#000;stroke-width:.0065001" d="M12.704 25.76a12.643 12.643 0 0 1-10.609-6.484 12.634 12.634 0 0 1-1.562-5.242c-.024-.345-.029-.487-.029-.897a12.632 12.632 0 1 1 12.2 12.623zm1.086-1.01a11.646 11.646 0 0 0 3.664-.816.5.5 0 0 0-.04-.1c-.685-1.453-.98-2.96-.864-4.402a7.537 7.537 0 0 1 1.103-3.373c.211-.336.427-.6.796-.977l.142-.144-.044-.074a18.482 18.482 0 0 0-1.12-1.646c-.211-.277-.582-.734-.592-.73a6.732 6.732 0 0 0-.17.187 28.104 28.104 0 0 1-3.145 3.004c-2.346 1.933-5.265 3.773-8.598 5.42-.097.048-.177.09-.177.093a11.613 11.613 0 0 0 3.523 2.509 11.652 11.652 0 0 0 4.466 1.06c.123.007.906-.002 1.056-.011zm4.73-1.305a11.732 11.732 0 0 0 2.432-1.696l.038-.035-.02-.137a18.332 18.332 0 0 0-1.718-5.43l-.15-.3-.026.024c-.037.036-.18.193-.264.292-.352.407-.704 1.064-.933 1.738a6.633 6.633 0 0 0-.349 1.846c-.008.17-.005.598.007.758.06.835.25 1.632.583 2.453.095.235.244.56.256.56.004 0 .069-.033.145-.073zm3.406-2.692a11.657 11.657 0 0 0 2.804-6.672c.001-.018 0-.035-.002-.037a4.236 4.236 0 0 0-.306-.062 6.432 6.432 0 0 0-.495-.062 7.958 7.958 0 0 0-.757-.01 5.744 5.744 0 0 0-2.633.789 6.777 6.777 0 0 0-.665.45c-.006.005.004.029.05.117a19.295 19.295 0 0 1 1.936 5.56.894.894 0 0 0 .068-.073zm-17.447-.549c2.897-1.432 5.475-3.011 7.618-4.668 1.935-1.497 3.567-3.097 4.804-4.71 1.189-1.55 2.043-3.12 2.537-4.665.272-.85.439-1.752.44-2.373v-.135l-.037-.026a11.655 11.655 0 0 0-5.092-2.014c-.251-.036-.287-.04-.283-.028a9.214 9.214 0 0 1 .324 3.67 9.153 9.153 0 0 1-.854 2.95 2.61 2.61 0 0 0-.077.17l.12.088c.56.414 1.232.968 1.763 1.453.007.006-.055.077-.311.358l-.337.369-.018.018-.109-.097c-.465-.42-.958-.827-1.469-1.212-.15-.113-.19-.14-.196-.134l-.085.1a9.221 9.221 0 0 1-1.22 1.174c-1.24.993-2.644 1.607-4.132 1.806-1.237.166-2.538.043-3.845-.364-.48-.15-.92-.318-1.417-.543a19.164 19.164 0 0 1-.893-.445.16.16 0 0 0-.013.047c-.14.795-.195 1.398-.195 2.14a11.634 11.634 0 0 0 2.53 7.246c.024.03.025.03.045.022l.402-.197zm14.923-5.951a6.777 6.777 0 0 1 5.344-1.228l.022.003-.005-.19a11.628 11.628 0 0 0-3.878-8.38c-.029-.027-.043-.036-.046-.03a9.98 9.98 0 0 1-.081.554c-.332 1.895-1.241 3.922-2.638 5.876-.18.253-.474.643-.597.795-.034.042-.038.049-.03.059l.116.137a19.63 19.63 0 0 1 1.754 2.431.412.412 0 0 0 .039-.027zM7.267 11.356c.302-.025.472-.045.69-.082 1.378-.23 2.667-.87 3.792-1.881.145-.13.411-.394.543-.537.24-.262.443-.518.528-.668a8.198 8.198 0 0 0 1.02-3.528c.01-.16.01-.727 0-.893a8.244 8.244 0 0 0-.412-2.148l-.04-.12-.368.004a9.042 9.042 0 0 0-.78.031 11.644 11.644 0 0 0-6.587 2.69.567.567 0 0 0-.09.085c.002.003.088.03.19.059a25.96 25.96 0 0 1 5.992 2.61c.007.007-.036.082-.243.43-.138.232-.253.424-.256.426a.494.494 0 0 1-.099-.05A24.925 24.925 0 0 0 4.878 5.16l-.175-.047-.023.026-.104.113a11.622 11.622 0 0 0-2.625 4.682l.126.07c.841.468 1.662.815 2.467 1.042a8.516 8.516 0 0 0 1.842.315c.126.007.775.003.881-.006z"/></svg>
