<svg width="27" height="15.998" xmlns="http://www.w3.org/2000/svg"><path style="fill:#000;stroke-width:.00675011" d="M5.636 15.113A5.09 5.09 0 0 1 .932 10.79a4.626 4.626 0 0 1-.052-.84 5.061 5.061 0 0 1 1.346-3.351 5.001 5.001 0 0 1 3.053-1.573c.35-.044.812-.05 1.167-.014a5.095 5.095 0 0 1 2.246.777l.095.061.664-.856c.365-.47.664-.862.664-.869 0-.007-.264-.56-.587-1.231l-.587-1.22h-.48c-.394 0-.487-.002-.526-.01-.205-.043-.328-.24-.284-.456a.34.34 0 0 1 .101-.192A.34.34 0 0 1 7.92.92c.04-.011.154-.012 1.872-.012h1.83l.052.019a.36.36 0 0 1 .252.337c.012.2-.105.36-.291.4-.04.008-.181.01-.944.01-.492 0-.896.002-.896.005s.217.443.482.977l.482.972 3.646.002 3.645.002-.056-.137-.462-1.127c-.25-.608-.41-1.007-.416-1.036a.382.382 0 0 1 .021-.24c.035-.076.159-.17.26-.197A45.65 45.65 0 0 1 19.282.89c.338.045.605.168.746.343.1.124.14.24.141.405 0 .274-.155.572-.464.885-.097.099-.132.124-.21.15a.38.38 0 0 1-.437-.559c.011-.02.056-.073.099-.118.098-.104.137-.15.185-.217l.039-.054-.03-.009c-.104-.03-.107-.03-.727-.033-.564-.003-.59-.002-.586.01l.72 1.76.72 1.756c.003.006.011.005.032-.002a5.16 5.16 0 0 1 1.166-.233c.144-.014.633-.012.796.003a5.081 5.081 0 0 1 3.432 1.764 5.084 5.084 0 0 1 1.161 2.527c.044.288.055.437.054.776 0 .281-.004.364-.027.57a5.09 5.09 0 0 1-4.529 4.482c-.367.037-.804.03-1.164-.016a5.127 5.127 0 0 1-3.542-2.16 5.044 5.044 0 0 1-.855-3.578 4.992 4.992 0 0 1 .66-1.866 5.218 5.218 0 0 1 1.987-1.9c.08-.043.102-.059.1-.067a62.67 62.67 0 0 0-.343-.828c-.004 0 .006-.012-1.483 1.745a8515.723 8515.723 0 0 1-2.139 2.524.269.269 0 0 0 .036.055c.272.361.391.86.316 1.316-.048.295-.18.59-.372.83-.06.076-.192.209-.268.27a2.094 2.094 0 0 1-.336.216 1.705 1.705 0 0 1-.795.184c-.29 0-.545-.06-.796-.184a1.732 1.732 0 0 1-.679-.597 1.771 1.771 0 0 1-.252-.564l-.012-.05h-.613l-.009.094a5.071 5.071 0 0 1-.766 2.248c-.214.334-.411.58-.696.864a4.792 4.792 0 0 1-.895.717 5.064 5.064 0 0 1-2.261.755 8.48 8.48 0 0 1-.75.01zm.534-.77a4.303 4.303 0 0 0 3.986-3.36 5.04 5.04 0 0 0 .084-.545v-.016H6.676l-.024.039a.812.812 0 0 1-.48.35.966.966 0 0 1-.314.016.823.823 0 0 1-.674-.661.935.935 0 0 1 .003-.272.83.83 0 0 1 .55-.619.723.723 0 0 1 .27-.037h.11L7.22 7.835 8.323 6.43l-.086-.056a4.075 4.075 0 0 0-2.175-.648c-.507-.01-.977.061-1.448.217a4.365 4.365 0 0 0-2.106 1.52 4.295 4.295 0 0 0-.82 1.97 3.338 3.338 0 0 0-.037.604c0 .3.005.378.04.627a4.333 4.333 0 0 0 2.204 3.161 4.28 4.28 0 0 0 2.275.519zm15.255-.01a4.312 4.312 0 0 0 3.913-3.877 6.156 6.156 0 0 0 0-.783 4.342 4.342 0 0 0-.242-1.071 4.364 4.364 0 0 0-3.367-2.793 4.515 4.515 0 0 0-1.678.047c-.11.025-.269.067-.283.076-.007.004.15.395.666 1.656l.676 1.652.048.008c.242.04.47.213.587.443.086.171.104.36.054.549a.83.83 0 0 1-.493.543.707.707 0 0 1-.306.049.67.67 0 0 1-.315-.075.804.804 0 0 1-.462-.722c0-.174.052-.337.15-.467a.257.257 0 0 0 .033-.052c0-.007-1.343-3.293-1.348-3.298a3.953 3.953 0 0 0-.335.193 4.462 4.462 0 0 0-1.201 1.14 4.258 4.258 0 0 0-.717 3.323 4.352 4.352 0 0 0 3.493 3.409c.192.033.31.046.573.064.081.005.443-.003.554-.013zm-7.84-3.296a.966.966 0 0 0 .256-.088 1.02 1.02 0 0 0 .551-.703.75.75 0 0 0 .016-.202.76.76 0 0 0-.016-.202.998.998 0 0 0-.28-.51 1.015 1.015 0 0 0-.544-.29 1.16 1.16 0 0 0-.365.002 1.049 1.049 0 0 0-.691.495.989.989 0 0 0-.088.807 1.035 1.035 0 0 0 .877.707c.05.007.219-.003.284-.016zm-1.945-1.41c.043-.175.136-.385.244-.55.087-.131.216-.277.343-.388l.047-.04-.895-1.855c-.491-1.02-.897-1.854-.9-1.855-.005 0-.854 1.074-1.066 1.35l-.038.048.133.13c.55.541.942 1.144 1.207 1.857.143.384.251.86.288 1.263l.009.093h.615l.013-.053zm-1.41-.047a4.289 4.289 0 0 0-1.272-2.624c-.055-.053-.056-.054-.067-.04-.119.149-2.125 2.705-2.126 2.71-.002.004.625.006 1.734.006h1.736zm5.18-2.516 1.682-1.978.505-.594-3.224-.001h-3.226c-.002.002 1.826 3.79 1.838 3.81.004.007.014.006.046-.001.274-.064.612-.051.894.034.082.025.2.071.255.1a.12.12 0 0 0 .042.015c.005 0 .54-.624 1.187-1.385z"/></svg>
