<svg width="27" height="16" viewBox="0 0 27 16" fill="none" xmlns="http://www.w3.org/2000/svg">
<path d="M21.0521 5.08503C20.4801 5.08503 19.9314 5.18696 19.4105 5.37228L17.848 1.55919H18.9176C19.2059 1.53139 19.4896 1.61015 19.5407 1.66112C19.5407 1.66112 19.5407 1.79084 19.2013 2.12907C19.099 2.231 19.099 2.38852 19.2013 2.49045C19.3036 2.59238 19.4617 2.59238 19.564 2.49045C19.7221 2.33292 20.1871 1.86961 20.0058 1.42482C19.7965 0.984673 19.0432 0.984673 18.9129 1.00784H17.4807C17.4016 1.00784 17.3225 1.0588 17.2714 1.10977C17.2202 1.16073 17.2202 1.2673 17.2435 1.34143L18.234 3.75531H10.6819L9.5891 1.54992H11.5422C11.7003 1.54992 11.8026 1.44799 11.8026 1.29046C11.8026 1.13293 11.7003 1.031 11.5422 1.031H8.0266C7.86849 1.031 7.76618 1.13293 7.76618 1.29046C7.76618 1.44799 7.86849 1.54992 8.0266 1.54992H9.01711L10.268 4.14449L8.8125 6.02093C8.00335 5.45105 7.01749 5.11282 5.94792 5.11282C3.21354 5.08503 1 7.31821 1 10.0425C1 12.7668 3.21354 15 5.94792 15C8.60324 15 10.7656 12.9243 10.8958 10.302H11.7282C11.8584 11.1081 12.5374 11.7012 13.3698 11.7012C14.2812 11.7012 15.0346 10.9506 15.0346 10.0425C15.0346 9.62553 14.8765 9.23634 14.6161 8.95372L18.4433 4.44102L18.9129 5.58077C17.2481 6.38695 16.0763 8.07342 16.0763 10.0425C16.0763 12.7668 18.3177 15 21.0521 15C23.7865 15 26 12.7668 26 10.0425C26 7.31821 23.7865 5.08503 21.0521 5.08503ZM10.5052 4.69584L12.4304 8.68963C12.0677 8.94909 11.8073 9.33827 11.7282 9.80622H10.8958C10.8168 8.43017 10.1936 7.21165 9.20312 6.35451L10.5052 4.69584ZM6.57106 9.78305C6.57106 9.75526 6.54315 9.73209 6.54315 9.70429L8.88691 6.72053C9.74721 7.47111 10.2913 8.56453 10.3703 9.75526H6.56641L6.57106 9.78305ZM5.94792 14.4765C3.50186 14.4765 1.52083 12.4796 1.52083 10.0379C1.52083 7.5962 3.52511 5.59931 5.97582 5.59931C6.91518 5.59931 7.79874 5.88656 8.50093 6.40548L6.15718 9.38924C6.10603 9.36144 6.02697 9.36144 5.97582 9.36144C5.6131 9.36144 5.29688 9.67186 5.29688 10.0379C5.29688 10.4039 5.60845 10.7143 5.97582 10.7143C6.26414 10.7143 6.49665 10.5336 6.59896 10.2973H10.375C10.2448 12.6371 8.31492 14.4765 5.94792 14.4765ZM13.393 11.1823C12.7699 11.1823 12.2491 10.6634 12.2491 10.0425C12.2491 9.42167 12.7699 8.90275 13.393 8.90275C14.0162 8.90275 14.537 9.42167 14.537 10.0425C14.5417 10.6634 14.0208 11.1823 13.393 11.1823ZM14.2533 8.6155C13.9929 8.45797 13.7046 8.38384 13.393 8.38384C13.2349 8.38384 13.0536 8.41164 12.9234 8.4626L10.9423 4.36225H17.8713L14.2533 8.6155ZM21.0521 14.4765C18.606 14.4765 16.5971 12.4796 16.5971 10.0379C16.5971 8.27264 17.6388 6.76686 19.1222 6.04409L20.5545 9.54676C20.4243 9.67649 20.3452 9.83402 20.3452 10.0379C20.3452 10.3993 20.6568 10.7143 21.0242 10.7143C21.3869 10.7143 21.7031 10.4039 21.7031 10.0379C21.7031 9.67649 21.3916 9.36144 21.0242 9.36144L19.5919 5.85876C20.0337 5.70124 20.5312 5.62711 21.0242 5.62711C23.4702 5.62711 25.4792 7.624 25.4792 10.0657C25.4792 12.4796 23.4981 14.4765 21.0521 14.4765Z" fill="#161616" stroke="#161616" stroke-width="0.25" stroke-miterlimit="10"/>
</svg>
