<?xml version="1.0" encoding="utf-8"?>
<!-- Generator: Adobe Illustrator 27.7.0, SVG Export Plug-In . SVG Version: 6.00 Build 0)  -->
<svg version="1.1" id="Calque_1" xmlns="http://www.w3.org/2000/svg" xmlns:xlink="http://www.w3.org/1999/xlink" x="0px" y="0px"
	 viewBox="0 0 36.5 36.5" style="enable-background:new 0 0 36.5 36.5;" xml:space="preserve">
<style type="text/css">
	.st0{fill:#DF231A;}
</style>
<g>
	<polygon class="st0" points="14.9,26.4 14.9,26.4 14.9,26.4 	"/>
	<path class="st0" d="M26.4,27.5c0.3,0,0.6-0.1,0.8-0.3c1.1-1.2,2.5-6,2.3-7l0,0c0-0.3,0-0.8-0.1-1.4l0-0.8
		c-0.1-2.6-0.3-3.5-0.8-3.9l-1.4-0.8l0.3-0.1c0.2-0.1,0.3-0.2,0.5-0.3c0.1-0.1,0.2-0.1,0.3-0.2c0.8-0.6,1.2-1.6,1.2-2.9
		c-0.1-2.2-1.5-2.7-2.9-3c-0.7-0.1-1.3,0-1.7,0.3c-0.6,0.4-1.1,1.3-1.3,2.6c-0.1,0.5-0.2,1-0.2,1.5v0.2l-2.3-1.2
		c-1.4-1.9-2.5-3.1-3.5-3.9l-0.1-0.1l0.1-0.1c0.2-0.2,0.4-0.5,0.6-0.7c0.4-0.5,0.7-0.9,1.1-1.3c0.1-0.2,0.2-0.5-0.1-0.7
		c-0.1-0.1-0.2-0.1-0.4-0.1c0,0,0,0,0,0c-0.1,0-0.2,0-0.3,0.2c-1.3,1.4-5.8,6.9-6,8.6c-0.2,1.8-2.1,3-2.5,3.2c-1,0.7-2,1.5-3,2.4
		C7,18,6.9,18.2,6.9,18.2c0,0-0.2,2.2-0.4,3.4c-0.2,1.1,0.2,2.3,0.5,2.8l0,0.1l0,0.1c0,0.1-0.1,0.3-0.2,0.5c-0.4,1-1,2.6-1.1,3.4
		l0,0.1C5.8,29,6,30,6.3,31.4c0.2,0.5,0.3,1,0.4,1.6l0,0l0,0c-0.1,0.6-0.1,0.9-0.1,1.3c0,0.3,0.2,0.5,0.6,0.5c0.3,0,0.5-0.2,0.5-0.5
		c0-1,0-1.2,0.1-1.2c0,0,0,0,0,0c0-0.5-0.2-1.1-0.4-1.7l-0.2-0.6l0.4,0.4c0,0,0.1,0.1,0.2,0.1C8,31.4,8,31.4,8.1,31.5
		c0.2,0.2,0.6,0.4,1,0.4c0.2,0,0.4-0.1,0.5-0.2c0.1-0.1,0.9-0.6,1.8-1.4c0.4-0.3,1-0.8,1.5-1.2c1-0.8,2-1.6,2.3-1.7
		c0.8-0.2,1.7-0.3,2.6-0.3c1.1-0.1,2-0.2,2.8-0.3l0.2,0l0,0.2c-0.1,1.1-0.1,2.1,0.1,2.9c0.1,0.6,0.5,1.1,1.2,1.2l0.1,0
		c0.9,0,1.9-0.9,2.3-1.8c0.4-1-0.6-1.9-1.6-2.6l-0.3-0.3l0.4,0l0,0c0.6-0.6,1.2-1.4,1.8-2.3l0.3-0.6l-0.1,0.8
		c-0.2,1.8-0.3,2.5,0.2,2.9C25.4,27.4,25.8,27.5,26.4,27.5z M26.4,26.4L26.4,26.4l-0.5,0l0-0.1c-0.1-0.2,0-0.6,0-1.3
		c0-0.3,0.1-0.7,0.1-0.9c0.1-1.1,0.3-2.1,0.6-2.9c0.1-0.5,0.2-1,0.3-1.4l0-0.9H27c0.2,0,0.7-0.1,1.2-0.2l0.2,0v0.3
		c0,0.7,0,1.2,0.1,1.5C28.6,21.2,27.1,25.7,26.4,26.4z M24.6,10L24.6,10c0.3-1.4,0.8-2.1,1.5-2.1h0.3c1.4,0.2,2,0.6,2,2
		c0,0.8-0.3,1.5-1,2c-0.3,0.3-0.8,0.5-1.3,0.5c-0.1,0-0.3,0-0.5,0c-0.9-0.2-1.2-0.4-1.3-0.7C24.3,11.3,24.4,10.7,24.6,10z M16.9,7.4
		l0.1-0.2l0.2,0.1c0.7,0.5,2.1,2.2,3.2,3.7l0.2,0.2l0.3,0.2L20,12.7l-0.1-0.1c-0.7-0.6-1.3-1.3-1.8-2.1l-0.2-0.4
		C17,8.4,16.7,7.8,16.9,7.4z M17.4,26.2c-0.9,0-1.7,0.2-2.5,0.4c-0.6,0.2-2.3,1.6-4.1,3.1c-0.8,0.6-1.3,1-1.6,1.3L9.1,31l-0.1,0
		c-0.5-0.2-1.7-1.4-2.1-2.2l-0.1-0.2h0.3c0.6,0,1.2,0.1,1.8,0.3H9c0.3,0.1,0.5,0,2.9-2.2c0.7-0.7,1.7-1.6,1.9-1.7
		c0.2-0.1,1.5-0.7,3-1.3l0.2-0.1l0.6,2.6H17.4z M17.4,22.3c-0.5,0.2-0.9,0.4-1.4,0.6c-1.1,0.5-2.3,1-2.6,1.2
		c-0.8,0.6-1.5,1.2-2.2,1.9c-0.3,0.3-0.7,0.6-1,0.9c-0.4,0.4-0.8,0.7-1,0.9l-0.1,0l-0.1,0c-0.6-0.2-1.2-0.3-1.8-0.3H7.1l0-0.2
		c0.2-1,0.6-2.2,0.9-2.8c0.1-0.2,0.1-0.3,0-0.5c-0.3-0.6-0.7-1.6-0.5-2.4l0-0.7l0.3,0.5c1,1.7,1.6,2.3,2.1,2.2c0.4,0,1.1-0.3,2.7-1
		c0.8-0.4,2-0.9,2.4-1l0,0l0,0c0.1,0.1,0.5,0.1,0.9,0.2c0.4,0.1,0.8,0.1,1.3,0.2l0.5,0.1L17.4,22.3z M8.4,20.3l0.8,0.2
		c0.4,0.1,0.9,0.1,1.4,0.1c0.3,0,0.9-0.3,1.9-0.7c0.3-0.1,0.6-0.2,0.9-0.4c0.6-0.3,1.3-0.6,2-0.8c0.2-0.1,0.3-0.1,0.5-0.2l0.1,0
		c0.5,0,1,0,1.5,0.1l0.2,0L16.9,21l-0.1,0c-0.8-0.2-1.4-0.3-1.6-0.3c-0.3-0.1-0.7,0.1-1.7,0.6c-0.3,0.1-0.7,0.3-1.2,0.5l-0.5,0.2
		c-0.7,0.3-1.4,0.6-1.8,0.7l-0.1,0l-0.1-0.1c-0.2-0.2-0.6-0.8-1.3-2L8.4,20.3z M21.3,25.6L21.3,25.6c-0.3,0.1-0.7,0.1-1.1,0.2
		c-0.5,0.1-1,0.2-1.5,0.2l-0.1,0l-0.7-2.8l1.7-0.8c0.1,0,0.2-0.1,0.3-0.3c0.1-0.1,0.1-0.3,0-0.4c-0.1-0.2-0.2-0.3-0.4-0.3l-1.7-0.3
		l0.7-2.3h0.1c0.7,0,1.5,0.2,2.2,0.4c0.2,0,0.4,0.1,0.6,0.1l0,0l0,0c0.9,1,1.1,2.9,0.4,5.7l0,0.1l-0.1,0c-0.1,0.1-0.3,0.1-0.4,0.1
		C21.5,25.6,21.3,25.6,21.3,25.6z M23.5,28.7L23.5,28.7c-0.2,0.8-1.1,1.2-1.4,1.2h-0.2v-0.2c0,0-0.1-0.1-0.1-0.2
		c-0.1-0.8-0.2-1.6-0.1-2.3l0-0.2l0.2,0.1C22.8,27.7,23.5,28.4,23.5,28.7z M22.6,15.8c0,0.5-0.3,1.5-0.8,2.6l-0.1,0.1l-0.1,0
		c-1.7-0.4-5.1-1.1-5.8-0.9l-0.3,0.1c-0.8,0.3-1.7,0.5-2.4,1c-0.8,0.4-1.6,0.7-2.4,0.9c-0.1,0-0.1,0-0.2,0c-0.3,0-0.6,0-1-0.1
		c-0.4-0.1-0.9-0.1-1.3-0.1H8v-0.2C8,19,8,18.8,8,18.7c0-0.1,0-0.2,0-0.3v-0.1l0.1,0c0.8-0.7,1.6-1.4,2.5-2c0.6-0.4,2.6-1.7,2.9-4
		c0.1-0.6,1-2.1,2.2-3.7l0.2-0.2L16,8.6c0.3,0.7,0.6,1.3,0.9,1.9l0.2,0.4c1.1,2.1,4,3.9,5.1,4.6L22.6,15.8L22.6,15.8z M24.9,21.8
		c-0.4,0.6-0.8,1.1-1.1,1.6l-0.3,0.4l0.1-0.5c0.2-1.7-0.1-3.2-0.9-4.3l-0.1-0.1l0-0.1c1.1-2.2,1.3-3.5,0.6-4l-0.3-0.2
		c-0.2-0.1-0.4-0.3-0.6-0.4c-0.4-0.2-0.8-0.5-1.3-0.9l-0.1-0.1l0.9-1.6l0.1,0.1l6.2,3.1l0,0.4c0.1,0.8,0.2,1.5,0.2,2.2v0.1l-0.1,0
		c-0.5,0.1-1,0.2-1.3,0.2h-0.1l0-0.1c-0.1-0.4-0.2-0.9-0.2-1.1c-0.1-0.2-0.1-0.3-0.1-0.4c0-0.1-0.1-0.2-0.3-0.3
		c-0.1-0.1-0.2-0.1-0.3,0c-0.2,0-0.3,0.1-0.4,0.3c-0.1,0.1-0.1,0.2,0,0.3l0.1,0.4c0.2,0.9,0.5,2.2,0.4,2.8l0,0
		c0,0.2-0.1,0.4-0.1,0.5c0,0.2-0.1,0.4-0.1,0.6l0,0.1l-0.1,0.1C25.4,21.1,25.2,21.4,24.9,21.8z"/>
</g>
</svg>
