<?xml version="1.0" encoding="utf-8"?>
<!-- Generator: Adobe Illustrator 27.5.0, SVG Export Plug-In . SVG Version: 6.00 Build 0)  -->
<svg version="1.1" xmlns="http://www.w3.org/2000/svg" xmlns:xlink="http://www.w3.org/1999/xlink" x="0px" y="0px"
	 viewBox="0 0 56 50" style="enable-background:new 0 0 56 50;" xml:space="preserve">
<style type="text/css">
	.st0{display:none;}
	.st1{display:inline;}
	.st2{fill:none;stroke:#DE001A;stroke-width:2;stroke-miterlimit:10;}
	.st3{fill:#DE001A;}
	.st4{fill:none;stroke:#DE001A;stroke-width:2;stroke-linejoin:round;}
	.st5{fill:none;stroke:#DE001A;stroke-width:2;stroke-linecap:round;stroke-linejoin:round;}
	.st6{display:inline;fill:#DE001A;stroke:#DE001A;stroke-width:0.5;stroke-miterlimit:10;}
</style>
<g id="Basket_3x3" class="st0">
	<g class="st1">
		<g>
			<path class="st2" d="M41.4,6.8c0,0,1.3,17.5-30.3,33"/>
			<path class="st2" d="M34.9,22.4"/>
			<path class="st2" d="M28.1,16.3c1.4,1,2.8,2.1,4.1,3.3"/>
			<path class="st2" d="M34.7,22.7c1.1,1.3,2.2,2.8,3.1,4.2"/>
			<path class="st2" d="M12.1,8.7c4.5,1.1,8.8,3,12.8,5.4"/>
			<path class="st2" d="M29.2,2.5c0.8,2.2,1.1,4.6,0.9,7c-0.2,2.4-0.9,4.7-2.1,6.8c0,0-7.6,11.6-21.5,3.4"/>
			<path class="st2" d="M46.7,22.8"/>
			<path class="st2" d="M50.4,23.3c-0.2-2.4-0.7-4.9-1.6-7.1c-1.1-2.8-2.8-5.3-4.9-7.5c-2.1-2.1-4.6-3.8-7.3-5s-5.7-1.8-8.6-1.8
				c-4.5,0-8.8,1.4-12.6,3.9C11.7,8.4,8.8,12,7.1,16.2S4.9,25,5.8,29.5c0.9,4.5,3,8.6,6.2,11.8c3.2,3.2,7.2,5.4,11.6,6.3
				c4.3,0.9,8.7,0.4,12.7-1.2"/>
		</g>
		<path class="st3" d="M46,43.8c-0.9,0-1.7-0.2-2.4-0.5C43,43,42.5,42.6,42.1,42c-0.4-0.5-0.6-1.2-0.6-1.9h2c0,0.4,0.2,0.7,0.4,1
			c0.2,0.3,0.5,0.5,0.9,0.7c0.4,0.2,0.8,0.2,1.3,0.2c0.5,0,1-0.1,1.4-0.3c0.4-0.2,0.7-0.4,0.9-0.7c0.2-0.3,0.3-0.7,0.3-1.1
			c0-0.4-0.1-0.8-0.3-1.2c-0.2-0.3-0.5-0.6-1-0.8c-0.4-0.2-0.9-0.3-1.5-0.3h-1.1v-1.6h1.1c0.5,0,0.9-0.1,1.3-0.3
			c0.4-0.2,0.7-0.4,0.9-0.7c0.2-0.3,0.3-0.7,0.3-1.1c0-0.4-0.1-0.8-0.3-1.1c-0.2-0.3-0.4-0.5-0.8-0.7C46.9,32,46.5,32,46.1,32
			c-0.4,0-0.8,0.1-1.2,0.2c-0.4,0.2-0.7,0.4-0.9,0.7c-0.2,0.3-0.4,0.6-0.4,1h-1.9c0-0.7,0.2-1.3,0.6-1.9c0.4-0.5,0.9-1,1.6-1.3
			c0.7-0.3,1.4-0.5,2.2-0.5c0.8,0,1.6,0.2,2.2,0.5c0.6,0.3,1.1,0.8,1.4,1.3c0.3,0.5,0.5,1.1,0.5,1.8c0,0.7-0.2,1.4-0.6,1.9
			c-0.4,0.5-1,0.9-1.6,1v0.1c0.9,0.1,1.5,0.5,2,1c0.5,0.6,0.7,1.3,0.7,2.1c0,0.7-0.2,1.4-0.6,1.9c-0.4,0.6-0.9,1-1.6,1.3
			C47.7,43.6,46.9,43.8,46,43.8z"/>
	</g>
</g>
<g id="Basket_5x5" class="st0">
	<g class="st1">
		<path class="st2" d="M41.5,6.8c0,0,1.3,17.5-30.3,33"/>
		<path class="st2" d="M35,22.4"/>
		<path class="st2" d="M28.2,16.3c1.4,1,2.8,2.1,4.1,3.3"/>
		<path class="st2" d="M34.8,22.7c1.1,1.3,2.2,2.8,3.1,4.2"/>
		<path class="st2" d="M12.2,8.7c4.5,1.1,8.8,3,12.8,5.4"/>
		<path class="st2" d="M29.4,2.5c0.8,2.2,1.1,4.6,0.9,7c-0.2,2.4-0.9,4.7-2.1,6.8c0,0-7.6,11.6-21.5,3.4"/>
		<path class="st2" d="M46.8,22.8"/>
		<path class="st2" d="M50.6,23.3c-0.2-2.4-0.7-4.9-1.6-7.1c-1.1-2.8-2.8-5.3-4.9-7.5c-2.1-2.1-4.6-3.8-7.3-5S31,1.9,28,1.9
			c-4.5,0-8.8,1.4-12.6,3.9C11.8,8.4,8.9,12,7.2,16.2S5,25,5.9,29.5c0.9,4.5,3,8.6,6.2,11.8c3.2,3.2,7.2,5.4,11.6,6.3
			c4.3,0.9,8.7,0.4,12.7-1.2"/>
		<path class="st3" d="M45.9,43.8c-0.8,0-1.5-0.2-2.2-0.5C43,43,42.5,42.6,42.1,42c-0.4-0.5-0.6-1.2-0.6-1.9h1.9
			c0,0.6,0.3,1,0.8,1.4c0.5,0.4,1,0.6,1.6,0.6c0.5,0,1-0.1,1.4-0.4c0.4-0.2,0.7-0.6,0.9-1c0.2-0.4,0.3-0.9,0.3-1.4
			c0-0.5-0.1-1-0.4-1.4c-0.2-0.4-0.6-0.8-1-1c-0.4-0.2-0.9-0.4-1.4-0.4c-0.4,0-0.8,0.1-1.2,0.2c-0.4,0.1-0.7,0.3-1,0.5L41.8,37
			l0.7-6.7h7.3V32h-5.6l-0.4,3.7h0.1c0.3-0.3,0.6-0.5,1-0.6c0.4-0.2,0.9-0.3,1.4-0.3c0.8,0,1.5,0.2,2.2,0.6c0.6,0.4,1.1,0.9,1.5,1.6
			c0.4,0.7,0.5,1.4,0.5,2.3c0,0.9-0.2,1.6-0.6,2.3c-0.4,0.7-0.9,1.2-1.6,1.6C47.6,43.6,46.8,43.8,45.9,43.8z"/>
	</g>
</g>
<g id="Handball">
	<g>
		<path class="st3" d="M49.6,25c0,4.4-1.4,8.8-3.9,12.4c-2.5,3.6-6.2,6.4-10.3,7.9c-4.4,1.6-9.2,1.7-13.7,0.3
			c-4.1-1.3-7.8-3.8-10.5-7.1c-2.7-3.4-4.4-7.7-4.7-12.1c-0.3-4.5,0.8-9,3.2-12.8c2.3-3.7,5.7-6.6,9.6-8.4c0.4-0.2,0.9-0.4,1.4-0.5
			c0.6-0.2,1.1-0.4,1.7-0.5c1.1-0.3,2.3-0.5,3.4-0.6c2.3-0.2,4.7-0.1,6.9,0.4c4.2,0.9,8.1,3.1,11.1,6.2c3.1,3.2,5,7.3,5.7,11.7
			c0.1,0.4,0.1,1,0.2,1.5C49.6,23.9,49.6,24.5,49.6,25c0,0.4,0.4,0.8,0.8,0.8c0.4,0,0.8-0.3,0.8-0.8c0-4.7-1.5-9.4-4.2-13.3
			C44.3,8,40.6,5.1,36.4,3.4c-4.6-1.8-9.8-2-14.5-0.7c-4.4,1.2-8.5,3.8-11.4,7.3c-3.1,3.7-5.1,8.3-5.5,13.1
			C4.5,27.8,5.6,32.7,8,36.8c2.3,4,5.9,7.2,10.1,9.2c4.5,2.1,9.5,2.7,14.4,1.8c4.7-0.9,9-3.3,12.3-6.8c3.3-3.4,5.4-7.8,6.1-12.5
			c0.2-1.1,0.3-2.3,0.3-3.4c0-0.4-0.4-0.8-0.8-0.8C50,24.2,49.6,24.6,49.6,25z"/>
		<path class="st3" d="M24.2,24.6c-0.5-0.9-1-1.7-1.5-2.6c-0.8-1.4-1.6-2.8-2.4-4.2c-0.2-0.3-0.4-0.6-0.6-1v0.8
			c0.5-0.9,1-1.7,1.5-2.6c0.8-1.4,1.6-2.8,2.4-4.2c0.2-0.3,0.4-0.6,0.6-1c-0.2,0.1-0.4,0.3-0.7,0.4h3h4.8h1.1
			c-0.2-0.1-0.4-0.3-0.7-0.4c0.5,0.9,1,1.7,1.5,2.6c0.8,1.4,1.6,2.8,2.4,4.2c0.2,0.3,0.4,0.6,0.6,1v-0.8c-0.5,0.9-1,1.7-1.5,2.6
			c-0.8,1.4-1.6,2.8-2.4,4.2c-0.2,0.3-0.4,0.6-0.6,1c0.2-0.1,0.4-0.3,0.7-0.4h-3h-4.8h-1.1c-0.4,0-0.8,0.4-0.8,0.8
			c0,0.4,0.3,0.8,0.8,0.8h3.1h4.8c0.3,0,0.7,0,1,0c0.6,0,0.8-0.5,1-0.9c0.8-1.3,1.5-2.7,2.3-4c0.6-1,1.2-2.1,1.8-3.1c0,0,0,0,0,0
			c0.1-0.2,0.1-0.5,0-0.8c-0.5-0.9-1-1.8-1.5-2.7c-0.8-1.4-1.6-2.8-2.4-4.2c-0.2-0.3-0.3-0.6-0.5-0.9c-0.3-0.5-0.8-0.4-1.3-0.4h-4.6
			c-1.2,0-2.4,0-3.6,0h-0.1c-0.3,0-0.5,0.2-0.7,0.4c-0.5,0.9-1,1.8-1.5,2.7c-0.8,1.4-1.6,2.8-2.4,4.2c-0.2,0.3-0.4,0.6-0.5,0.9
			c-0.3,0.5,0.1,0.9,0.3,1.4c0.8,1.3,1.5,2.7,2.3,4c0.6,1,1.2,2.1,1.8,3.1c0,0,0,0,0,0c0.2,0.4,0.7,0.5,1.1,0.3
			C24.3,25.5,24.4,25,24.2,24.6z"/>
		<path class="st3" d="M24.2,40.1c-0.5-0.9-1-1.7-1.5-2.6c-0.8-1.4-1.6-2.8-2.4-4.2c-0.2-0.3-0.4-0.6-0.6-1v0.8
			c0.5-0.9,1-1.7,1.5-2.6c0.8-1.4,1.6-2.8,2.4-4.2c0.2-0.3,0.4-0.6,0.6-1c-0.2,0.1-0.4,0.3-0.7,0.4h3h4.8h1.1
			c-0.2-0.1-0.4-0.3-0.7-0.4c0.5,0.9,1,1.7,1.5,2.6c0.8,1.4,1.6,2.8,2.4,4.2c0.2,0.3,0.4,0.6,0.6,1v-0.8c-0.5,0.9-1,1.7-1.5,2.6
			c-0.8,1.4-1.6,2.8-2.4,4.2c-0.2,0.3-0.4,0.6-0.6,1c0.2-0.1,0.4-0.3,0.7-0.4h-3h-4.8h-1.1c-0.4,0-0.8,0.4-0.8,0.8
			c0,0.4,0.3,0.8,0.8,0.8h3.1h4.8c0.3,0,0.7,0,1,0c0.6,0,0.8-0.5,1-0.9c0.8-1.3,1.5-2.7,2.3-4c0.6-1,1.2-2.1,1.8-3.1c0,0,0,0,0,0
			c0.1-0.2,0.1-0.5,0-0.8c-0.5-0.9-1-1.8-1.5-2.7c-0.8-1.4-1.6-2.8-2.4-4.2c-0.2-0.3-0.3-0.6-0.5-0.9c-0.3-0.5-0.8-0.4-1.3-0.4h-4.6
			c-1.2,0-2.4,0-3.6,0h-0.1c-0.3,0-0.5,0.2-0.7,0.4c-0.5,0.9-1,1.8-1.5,2.7c-0.8,1.4-1.6,2.8-2.4,4.2c-0.2,0.3-0.4,0.6-0.5,0.9
			c-0.3,0.5,0.1,0.9,0.3,1.4c0.8,1.3,1.5,2.7,2.3,4c0.6,1,1.2,2.1,1.8,3.1c0,0,0,0,0,0c0.2,0.4,0.7,0.5,1.1,0.3
			C24.3,41,24.4,40.5,24.2,40.1z"/>
		<path class="st3" d="M10.8,32.4c-0.5-0.9-1-1.7-1.5-2.6c-0.8-1.4-1.6-2.8-2.4-4.2c-0.2-0.3-0.4-0.6-0.6-1v0.8
			c0.5-0.9,1-1.7,1.5-2.6c0.8-1.4,1.6-2.8,2.4-4.2c0.2-0.3,0.4-0.6,0.6-1c-0.2,0.1-0.4,0.3-0.7,0.4h3H18h1.1
			c-0.2-0.1-0.4-0.3-0.7-0.4c0.5,0.9,1,1.7,1.5,2.6c0.8,1.4,1.6,2.8,2.4,4.2c0.2,0.3,0.4,0.6,0.6,1v-0.8c-0.5,0.9-1,1.7-1.5,2.6
			c-0.8,1.4-1.6,2.8-2.4,4.2c-0.2,0.3-0.4,0.6-0.6,1c0.2-0.1,0.4-0.3,0.7-0.4h-3h-4.8h-1.1c-0.4,0-0.8,0.4-0.8,0.8
			c0,0.4,0.3,0.8,0.8,0.8h3H18h1.1c0.3,0,0.5-0.2,0.7-0.4c0.5-0.9,1-1.8,1.5-2.7c0.8-1.4,1.6-2.8,2.4-4.2c0.2-0.3,0.4-0.6,0.5-0.9
			c0.3-0.5-0.1-0.9-0.3-1.4c-0.8-1.3-1.5-2.7-2.3-4c-0.6-1-1.2-2.1-1.8-3.1c0,0,0,0,0,0c-0.1-0.2-0.4-0.4-0.7-0.4h-3h-4.8h-1.1
			c-0.3,0-0.5,0.2-0.7,0.4c-0.5,0.9-1,1.7-1.5,2.6c-0.8,1.4-1.6,2.8-2.4,4.2c-0.2,0.3-0.4,0.6-0.6,1c-0.1,0.2-0.1,0.5,0,0.8
			c0.5,0.9,1,1.7,1.5,2.6c0.8,1.4,1.6,2.8,2.4,4.2c0.2,0.3,0.4,0.6,0.6,1c0.2,0.4,0.7,0.5,1.1,0.3C10.9,33.2,11,32.7,10.8,32.4z"/>
		<path class="st3" d="M22.9,9.1c-0.5,0.9-1,1.7-1.5,2.6c-0.8,1.4-1.6,2.8-2.4,4.2c-0.2,0.3-0.4,0.6-0.6,1c0.2-0.1,0.4-0.3,0.7-0.4
			h-3h-4.8h-1.1c0.2,0.1,0.4,0.3,0.7,0.4c-0.6-1-1.2-2-1.7-3v0.8C11,11,14,8,17.6,6c1-0.5,1.9-1,2.9-1.3c-0.3-0.1-0.6-0.2-0.9-0.4
			c0.9,1.6,1.9,3.2,2.8,4.8c0.1,0.2,0.3,0.5,0.4,0.7c0.2,0.4,0.7,0.5,1.1,0.3c0.4-0.2,0.5-0.7,0.3-1.1c-0.9-1.6-1.9-3.2-2.8-4.8
			C21.3,4,21.2,3.8,21,3.6c-0.2-0.3-0.6-0.5-0.9-0.4c-3.1,1.1-6,2.9-8.4,5.3c-1.3,1.3-2.4,2.7-3.4,4.2c-0.2,0.4-0.5,0.8-0.7,1.2
			c-0.1,0.3,0,0.5,0.1,0.8c0.2,0.3,0.3,0.6,0.5,0.9c0.4,0.7,0.8,1.4,1.2,2c0.1,0.2,0.4,0.4,0.7,0.4h3H18h1.1c0.3,0,0.5-0.2,0.7-0.4
			c0.5-0.9,1-1.7,1.5-2.6c0.8-1.4,1.6-2.8,2.4-4.2c0.2-0.3,0.4-0.6,0.6-1C24.5,9.5,24.3,9,24,8.8C23.6,8.6,23.1,8.7,22.9,9.1z"/>
		<path class="st3" d="M47,13.9c-0.6,1-1.2,2-1.7,3c0.2-0.1,0.4-0.3,0.7-0.4h-3h-4.8h-1.1c0.2,0.1,0.4,0.3,0.7,0.4
			c-0.5-0.9-1-1.7-1.5-2.6c-0.8-1.4-1.6-2.8-2.4-4.2c-0.2-0.3-0.4-0.6-0.6-1v0.8c0.9-1.6,1.9-3.2,2.8-4.8c0.1-0.2,0.3-0.5,0.4-0.7
			c-0.3,0.1-0.6,0.2-0.9,0.4c0.9,0.3,1.7,0.7,2.6,1.2c0.9,0.5,1.8,1,2.6,1.6c1.6,1.2,3.1,2.7,4.4,4.3c0.7,0.9,1.3,1.9,1.9,2.9
			c0.2,0.4,0.7,0.5,1.1,0.3c0.4-0.2,0.5-0.7,0.3-1.1C46.2,10,43,6.8,39.1,4.7c-1.1-0.6-2.2-1.1-3.3-1.5c-0.3-0.1-0.7,0.1-0.9,0.4
			c-1.1,1.8-2.2,3.6-3.2,5.5c-0.2,0.4-0.1,0.8,0.1,1.1c0.2,0.4,0.5,0.8,0.7,1.2c0.7,1.2,1.4,2.5,2.2,3.7c0.5,0.8,1,1.7,1.4,2.5
			c0.1,0.2,0.4,0.4,0.7,0.4h5.1h3.1c0.2,0,0.5,0,0.7,0c0.5,0,0.7-0.4,0.9-0.7c0.5-0.9,1-1.8,1.5-2.7c0.2-0.4,0.1-0.9-0.3-1.1
			C47.7,13.4,47.2,13.5,47,13.9z"/>
		<path class="st3" d="M22.9,40.1c-0.9,1.6-1.9,3.2-2.8,4.8c-0.1,0.2-0.3,0.5-0.4,0.7c0.3-0.1,0.6-0.2,0.9-0.4
			c-0.9-0.3-1.7-0.7-2.6-1.2c-0.9-0.5-1.8-1-2.6-1.6c-1.6-1.2-3.2-2.7-4.4-4.3c-0.7-0.9-1.3-1.9-1.9-2.9v0.8c0.6-1,1.2-2,1.7-3
			c-0.2,0.1-0.4,0.3-0.7,0.4h3h4.8h1.1c-0.2-0.1-0.4-0.3-0.7-0.4c0.5,0.9,1,1.7,1.5,2.6c0.8,1.4,1.6,2.8,2.4,4.2
			c0.2,0.3,0.4,0.6,0.5,0.9c0.2,0.4,0.7,0.5,1.1,0.3c0.4-0.2,0.5-0.7,0.3-1.1c-0.1-0.3-0.3-0.5-0.4-0.8c-0.4-0.6-0.7-1.2-1.1-1.9
			c-0.8-1.4-1.6-2.8-2.4-4.2c-0.2-0.3-0.4-0.6-0.5-1c-0.1-0.2-0.4-0.4-0.7-0.4h-3h-4.8h-1.1c-0.3,0-0.5,0.2-0.7,0.4
			c-0.3,0.6-0.7,1.1-1,1.7c-0.2,0.4-0.4,0.7-0.6,1.1c0,0.1-0.1,0.2-0.1,0.2c-0.2,0.5,0,0.9,0.3,1.3c1.8,3,4.2,5.7,7.2,7.6
			c1.6,1,3.3,1.9,5,2.5c0.3,0.1,0.7-0.1,0.9-0.4c0.9-1.6,1.9-3.2,2.8-4.8c0.1-0.2,0.3-0.5,0.4-0.7c0.2-0.4,0.1-0.9-0.3-1.1
			C23.6,39.6,23.1,39.7,22.9,40.1z"/>
		<path class="st3" d="M47,35.4c-2,3.6-4.9,6.5-8.5,8.5c-1,0.6-2,1-3,1.4c0.3,0.1,0.6,0.2,0.9,0.4c-0.9-1.6-1.9-3.2-2.8-4.8
			c-0.1-0.2-0.3-0.5-0.4-0.7v0.8c0.1-0.3,0.3-0.5,0.4-0.8c0.4-0.6,0.7-1.2,1.1-1.9c0.8-1.4,1.6-2.8,2.4-4.2c0.2-0.3,0.4-0.6,0.5-1
			c-0.2,0.1-0.4,0.3-0.7,0.4h3h4.8h1.1c-0.2-0.1-0.4-0.3-0.7-0.4c0.6,1,1.2,2,1.7,3c0.2,0.4,0.7,0.5,1.1,0.3
			c0.4-0.2,0.5-0.7,0.3-1.1c-0.6-1-1.2-2-1.7-3c-0.1-0.2-0.4-0.4-0.7-0.4h-3h-4.8h-1.1c-0.3,0-0.5,0.2-0.7,0.4
			c-1.1,1.9-2.2,3.9-3.4,5.8c-0.3,0.5-0.6,1-0.8,1.4c-0.2,0.3-0.4,0.6-0.4,0.9c0,0.4,0.4,0.8,0.5,1.1c0.3,0.6,0.7,1.1,1,1.7
			c0.6,1,1.2,2,1.8,3.1c0.2,0.3,0.6,0.5,0.9,0.4c4.1-1.5,7.8-4.1,10.4-7.6c0.7-1,1.4-2,2-3.1c0.2-0.4,0.1-0.9-0.3-1.1
			C47.7,34.9,47.2,35,47,35.4z"/>
		<path class="st3" d="M37.6,32.4c-0.5-0.9-1-1.7-1.5-2.6c-0.8-1.4-1.6-2.8-2.4-4.2c-0.2-0.3-0.4-0.6-0.6-1v0.8
			c0.5-0.9,1-1.7,1.5-2.6c0.8-1.4,1.6-2.8,2.4-4.2c0.2-0.3,0.4-0.6,0.6-1c-0.2,0.1-0.4,0.3-0.7,0.4h3h4.8h1.1
			c-0.2-0.1-0.4-0.3-0.7-0.4c0.5,0.9,1,1.7,1.5,2.6c0.8,1.4,1.6,2.8,2.4,4.2c0.2,0.3,0.4,0.6,0.6,1v-0.8c-0.5,0.9-1,1.7-1.5,2.6
			c-0.8,1.4-1.6,2.8-2.4,4.2c-0.2,0.3-0.4,0.6-0.6,1c0.2-0.1,0.4-0.3,0.7-0.4h-3h-4.8h-1.1c-0.4,0-0.8,0.4-0.8,0.8
			c0,0.4,0.3,0.8,0.8,0.8H40h4.8c0.3,0,0.7,0,1,0c0.6,0,0.8-0.5,1-0.9c0.8-1.3,1.5-2.7,2.3-4c0.6-1,1.2-2.1,1.8-3.1c0,0,0,0,0,0
			c0.1-0.2,0.1-0.5,0-0.8c-0.9-1.6-1.9-3.3-2.9-4.9c-0.5-0.9-1-1.7-1.5-2.6c-0.2-0.3-0.4-0.6-0.9-0.7c-0.2,0-0.4,0-0.7,0h-7h-1.1
			c-0.4,0-0.7,0.1-0.9,0.4c-0.4,0.7-0.8,1.3-1.1,2c-1.1,1.9-2.2,3.7-3.2,5.6c0,0,0,0.1-0.1,0.1c-0.1,0.2-0.1,0.5,0,0.8
			c0.5,0.9,1,1.7,1.5,2.6c0.8,1.4,1.6,2.8,2.4,4.2c0.2,0.3,0.4,0.6,0.6,1c0.2,0.4,0.7,0.5,1.1,0.3C37.7,33.2,37.8,32.7,37.6,32.4z"
			/>
	</g>
</g>
<g id="Futsal" class="st0">
	<g class="st1">
		<path class="st3" d="M28,3.4c4.3,0,8.4,1.3,12,3.6c3.6,2.4,6.3,5.7,8,9.7c1.6,3.9,2.1,8.3,1.2,12.5s-2.9,8-5.9,11.1
			c-3,3-6.9,5.1-11.1,5.9s-8.5,0.4-12.5-1.2s-7.3-4.4-9.7-8c-2.4-3.6-3.6-7.7-3.6-12c0-5.7,2.3-11.2,6.3-15.3
			C16.8,5.7,22.3,3.4,28,3.4z M28,1.4c-4.7,0-9.2,1.4-13.1,4C11,8,8,11.7,6.2,16C4.4,20.3,3.9,25,4.9,29.6c0.9,4.6,3.2,8.8,6.5,12.1
			c3.3,3.3,7.5,5.5,12.1,6.5c4.6,0.9,9.3,0.4,13.6-1.3s8-4.8,10.6-8.7c2.6-3.9,4-8.4,4-13.1c0-3.1-0.6-6.2-1.8-9
			c-1.2-2.9-2.9-5.5-5.1-7.7c-2.2-2.2-4.8-3.9-7.7-5.1C34.2,2,31.1,1.4,28,1.4L28,1.4z"/>
		<path class="st2" d="M27.5,15.9V8.4l-7.6-4.9"/>
		<path class="st2" d="M19.9,22.6L12.5,20l-2.2-9.8"/>
		<path class="st2" d="M12.3,19.7l-6.8,6"/>
		<path class="st2" d="M22.7,32.2l-4.2,5.7L8.4,36.5"/>
		<path class="st2" d="M18,37.9l3.8,8.6"/>
		<path class="st2" d="M27.5,8.3l8.6-4.8"/>
		<path class="st2" d="M36.1,22.6l7.4-2.6l2.2-9.8"/>
		<path class="st2" d="M43.7,19.7l6.8,6"/>
		<path class="st2" d="M33.2,32.2l4.2,5.7l10.1-1.4"/>
		<path class="st2" d="M38,37.9l-3.8,8.6"/>
		<path class="st2" d="M22.6,32.4l-3.3-10.3l8.7-6.3l8.7,6.3l-3.3,10.3H22.6z"/>
	</g>
</g>
<g id="Volley" class="st0">
	<g class="st1">
		<path class="st3" d="M28.1,4.4c4.1,0,8.1,1.2,11.5,3.5c3.4,2.3,6,5.5,7.6,9.3c1.6,3.8,2,7.9,1.2,11.9c-0.8,4-2.8,7.7-5.6,10.6
			s-6.6,4.8-10.6,5.6c-4,0.8-8.1,0.4-11.9-1.2c-3.8-1.6-7-4.2-9.3-7.6C8.7,33.1,7.5,29.1,7.5,25c0-5.5,2.2-10.7,6-14.6
			C17.4,6.6,22.6,4.4,28.1,4.4 M28.1,2.5c-4.5,0-8.8,1.3-12.5,3.8c-3.7,2.5-6.6,6-8.3,10.1C5.6,20.5,5.1,25,6,29.4
			c0.9,4.4,3,8.4,6.2,11.5c3.2,3.2,7.2,5.3,11.5,6.2c4.4,0.9,8.9,0.4,13-1.3c4.1-1.7,7.6-4.6,10.1-8.3c2.5-3.7,3.8-8.1,3.8-12.5
			c0-3-0.6-5.9-1.7-8.6c-1.1-2.7-2.8-5.2-4.9-7.3c-2.1-2.1-4.6-3.8-7.3-4.9C34,3,31.1,2.5,28.1,2.5L28.1,2.5z"/>
		<path class="st4" d="M19.8,5.4c0,0-0.6,10,8.3,19.6c0,0-2.8,12.4-12.4,17.5"/>
		<path class="st5" d="M14.2,15.3c1.3,6.9,5.2,13.1,10.8,17.3"/>
		<path class="st5" d="M11.1,26.2c1.7,4.6,4.6,9.5,9.5,12.1"/>
		<path class="st4" d="M49,26.9c0,0-8-5.2-20.8-2.2"/>
		<path class="st5" d="M48.6,19.2c-2.7-1.4-11.3-5.1-21.3-2.5"/>
		<path class="st5" d="M44.8,12.3c-2.6-1.1-12.2-4.6-20.4-2.1"/>
		<path class="st5" d="M36.8,24c0,0.1-1.5,12.5-14,21.6"/>
		<path class="st5" d="M44.1,24.9c0,0.1-2.8,15.8-13.1,21.4"/>
	</g>
</g>
<g id="Badminton" class="st0">
	<g class="st1">
		<path class="st5" d="M14.5,38.3l22.8-22.8l-0.7-7.7l-7.7,0.7L12.8,36.4"/>
		<path class="st5" d="M28.9,8.5l-1.8-6.3l-6.7,3.6l-9.5,28.9l7.3,7.3"/>
		<path class="st5" d="M37.3,15.6l7.7,0.7L44.3,24L16.4,40"/>
		<path class="st5" d="M44.3,24l6.3,1.8L47,32.5L18.1,42l-3.2,3.2"/>
		<path class="st2" d="M14.9,45.2L14,46.2c-0.9,1-2.1,1.5-3.4,1.6c-1.3,0.1-2.6-0.4-3.6-1.3l-0.3-0.3c-0.9-1-1.3-2.3-1.3-3.6
			C5.4,41.3,6,40.1,7,39.2l0.9-0.9L14.9,45.2z"/>
		<path class="st2" d="M14.8,23.1l15,15"/>
	</g>
</g>
<g id="Padel" class="st0">
	<g class="st1">
		<path class="st3" d="M30.8,13c0-0.2-0.1-0.4-0.2-0.6c-0.2-0.2-0.4-0.2-0.6-0.2c-0.2,0-0.3,0-0.5,0.1c-0.1,0.1-0.2,0.2-0.3,0.4
			c-0.1,0.2-0.1,0.3,0,0.5c0,0.2,0.1,0.3,0.2,0.4c0.2,0.2,0.4,0.2,0.6,0.2c0.2,0,0.4-0.1,0.6-0.2C30.7,13.4,30.8,13.2,30.8,13
			L30.8,13z"/>
		<path class="st3" d="M33.3,15.6c0-0.2-0.1-0.4-0.2-0.6c-0.2-0.2-0.4-0.2-0.6-0.2c-0.2,0-0.3,0-0.5,0.1c-0.1,0.1-0.2,0.2-0.3,0.4
			c-0.1,0.2-0.1,0.3,0,0.5c0,0.2,0.1,0.3,0.2,0.4c0.2,0.2,0.4,0.2,0.6,0.2c0.2,0,0.4-0.1,0.6-0.2C33.2,16,33.3,15.8,33.3,15.6
			L33.3,15.6z"/>
		<path class="st3" d="M35.9,18.2c0-0.2-0.1-0.4-0.2-0.6c-0.2-0.2-0.4-0.2-0.6-0.2c-0.2,0-0.3,0-0.5,0.1c-0.1,0.1-0.2,0.2-0.3,0.4
			c-0.1,0.2-0.1,0.3,0,0.5c0,0.2,0.1,0.3,0.2,0.4c0.2,0.2,0.4,0.2,0.6,0.2c0.2,0,0.4-0.1,0.6-0.2C35.9,18.6,35.9,18.4,35.9,18.2
			L35.9,18.2z"/>
		<path class="st3" d="M38.5,20.8c0-0.2-0.1-0.4-0.2-0.6C38.1,20,37.9,20,37.7,20c-0.2,0-0.3,0-0.5,0.1s-0.2,0.2-0.3,0.4
			c-0.1,0.2-0.1,0.3,0,0.5c0,0.2,0.1,0.3,0.2,0.4c0.2,0.2,0.4,0.2,0.6,0.2c0.2,0,0.4-0.1,0.6-0.2C38.4,21.2,38.5,21,38.5,20.8
			L38.5,20.8z"/>
		<path class="st3" d="M41.1,23.4c0-0.2-0.1-0.4-0.2-0.6c-0.2-0.2-0.4-0.2-0.6-0.2c-0.2,0-0.3,0-0.5,0.1c-0.1,0.1-0.2,0.2-0.3,0.4
			c-0.1,0.2-0.1,0.3,0,0.5c0,0.2,0.1,0.3,0.2,0.4c0.2,0.2,0.4,0.2,0.6,0.2c0.2,0,0.4-0.1,0.6-0.2C41.1,23.8,41.1,23.6,41.1,23.4
			L41.1,23.4z"/>
		<path class="st3" d="M38.1,10.9c0-0.2-0.1-0.4-0.2-0.6c-0.2-0.2-0.4-0.2-0.6-0.2c-0.2,0-0.3,0-0.5,0.1c-0.1,0.1-0.2,0.2-0.3,0.4
			c-0.1,0.2-0.1,0.3,0,0.5c0,0.2,0.1,0.3,0.2,0.4c0.2,0.2,0.4,0.2,0.6,0.2c0.2,0,0.4-0.1,0.6-0.2C38,11.3,38.1,11.1,38.1,10.9
			L38.1,10.9z"/>
		<path class="st3" d="M40.7,13.5c0-0.2-0.1-0.4-0.2-0.6c-0.2-0.2-0.4-0.2-0.6-0.2c-0.2,0-0.3,0-0.5,0.1c-0.1,0.1-0.2,0.2-0.3,0.4
			c-0.1,0.2-0.1,0.3,0,0.5c0,0.2,0.1,0.3,0.2,0.4c0.2,0.2,0.4,0.2,0.6,0.2c0.2,0,0.4-0.1,0.6-0.2C40.6,13.9,40.7,13.7,40.7,13.5
			L40.7,13.5z"/>
		<path class="st3" d="M43.3,16.1c0-0.2-0.1-0.4-0.2-0.6c-0.2-0.2-0.4-0.2-0.6-0.2c-0.2,0-0.3,0-0.5,0.1c-0.1,0.1-0.2,0.2-0.3,0.4
			c-0.1,0.2-0.1,0.3,0,0.5c0,0.2,0.1,0.3,0.2,0.4c0.2,0.2,0.4,0.2,0.6,0.2c0.2,0,0.4-0.1,0.6-0.2C43.2,16.5,43.3,16.3,43.3,16.1
			L43.3,16.1z"/>
		<path class="st3" d="M28.6,20.3c0-0.2-0.1-0.4-0.2-0.6c-0.2-0.2-0.4-0.2-0.6-0.2c-0.2,0-0.3,0-0.5,0.1c-0.1,0.1-0.2,0.2-0.3,0.4
			c-0.1,0.2-0.1,0.3,0,0.5c0,0.2,0.1,0.3,0.2,0.4c0.1,0.1,0.3,0.2,0.4,0.2c0.2,0,0.3,0,0.5,0c0.2-0.1,0.3-0.2,0.4-0.3
			C28.6,20.6,28.6,20.5,28.6,20.3L28.6,20.3z"/>
		<path class="st3" d="M31.2,22.9c0-0.2-0.1-0.4-0.2-0.6c-0.2-0.2-0.4-0.2-0.6-0.2c-0.2,0-0.3,0-0.5,0.1s-0.2,0.2-0.3,0.4
			c-0.1,0.2-0.1,0.3,0,0.5c0,0.2,0.1,0.3,0.2,0.4c0.1,0.1,0.3,0.2,0.4,0.2c0.2,0,0.3,0,0.5,0c0.2-0.1,0.3-0.2,0.4-0.3
			S31.2,23.1,31.2,22.9L31.2,22.9z"/>
		<path class="st3" d="M33.8,25.5c0-0.2-0.1-0.4-0.2-0.6c-0.2-0.2-0.4-0.2-0.6-0.2c-0.2,0-0.3,0-0.5,0.1c-0.1,0.1-0.2,0.2-0.3,0.4
			c-0.1,0.2-0.1,0.3,0,0.5c0,0.2,0.1,0.3,0.2,0.4c0.1,0.1,0.3,0.2,0.4,0.2c0.2,0,0.3,0,0.5,0c0.2-0.1,0.3-0.2,0.4-0.3
			C33.8,25.8,33.8,25.7,33.8,25.5L33.8,25.5z"/>
		<path class="st3" d="M34.2,11.9c0-0.2-0.1-0.4-0.2-0.6c-0.2-0.2-0.4-0.2-0.6-0.2c-0.2,0-0.3,0-0.5,0.1c-0.1,0.1-0.2,0.2-0.3,0.4
			c-0.1,0.2-0.1,0.3,0,0.5c0,0.2,0.1,0.3,0.2,0.4c0.2,0.2,0.4,0.2,0.6,0.2c0.2,0,0.4-0.1,0.6-0.2C34.1,12.3,34.2,12.1,34.2,11.9
			L34.2,11.9z"/>
		<path class="st3" d="M36.8,14.5c0-0.2-0.1-0.4-0.2-0.6c-0.2-0.2-0.4-0.2-0.6-0.2c-0.2,0-0.3,0-0.5,0.1s-0.2,0.2-0.3,0.4
			c-0.1,0.2-0.1,0.3,0,0.5c0,0.2,0.1,0.3,0.2,0.4c0.2,0.2,0.4,0.2,0.6,0.2c0.2,0,0.4-0.1,0.6-0.2C36.8,14.9,36.8,14.7,36.8,14.5
			L36.8,14.5z"/>
		<path class="st3" d="M39.4,17.1c0-0.2-0.1-0.4-0.2-0.6c-0.2-0.2-0.4-0.2-0.6-0.2c-0.2,0-0.3,0-0.5,0.1c-0.1,0.1-0.2,0.2-0.3,0.4
			c-0.1,0.2-0.1,0.3,0,0.5c0,0.2,0.1,0.3,0.2,0.4c0.2,0.2,0.4,0.2,0.6,0.2c0.2,0,0.4-0.1,0.6-0.2C39.3,17.5,39.4,17.3,39.4,17.1
			L39.4,17.1z"/>
		<path class="st3" d="M42,19.7c0-0.2-0.1-0.4-0.2-0.6c-0.2-0.2-0.4-0.2-0.6-0.2c-0.2,0-0.3,0-0.5,0.1s-0.2,0.2-0.3,0.4
			c-0.1,0.2-0.1,0.3,0,0.5c0,0.2,0.1,0.3,0.2,0.4c0.2,0.2,0.4,0.2,0.6,0.2c0.2,0,0.4-0.1,0.6-0.2C41.9,20.1,42,19.9,42,19.7L42,19.7
			z"/>
		<path class="st3" d="M29.6,16.5c0-0.2-0.1-0.4-0.2-0.6c-0.2-0.2-0.4-0.2-0.6-0.2c-0.2,0-0.3,0-0.5,0.1S28.1,16,28,16.2
			c-0.1,0.2-0.1,0.3,0,0.5c0,0.2,0.1,0.3,0.2,0.4c0.2,0.2,0.4,0.2,0.6,0.2c0.2,0,0.4-0.1,0.6-0.2C29.5,16.9,29.6,16.7,29.6,16.5
			L29.6,16.5z"/>
		<path class="st3" d="M32.2,19.1c0-0.2-0.1-0.4-0.2-0.6c-0.2-0.2-0.4-0.2-0.6-0.2c-0.2,0-0.3,0-0.5,0.1s-0.2,0.2-0.3,0.4
			c-0.1,0.2-0.1,0.3,0,0.5c0,0.2,0.1,0.3,0.2,0.4c0.2,0.2,0.4,0.2,0.6,0.2c0.2,0,0.4-0.1,0.6-0.2C32.1,19.5,32.2,19.3,32.2,19.1
			L32.2,19.1z"/>
		<path class="st3" d="M34.8,21.7c0-0.2-0.1-0.4-0.2-0.6c-0.2-0.2-0.4-0.2-0.6-0.2c-0.2,0-0.3,0-0.5,0.1c-0.1,0.1-0.2,0.2-0.3,0.4
			c-0.1,0.2-0.1,0.3,0,0.5c0,0.2,0.1,0.3,0.2,0.4c0.2,0.2,0.4,0.2,0.6,0.2c0.2,0,0.4-0.1,0.6-0.2C34.7,22.1,34.8,21.9,34.8,21.7
			L34.8,21.7z"/>
		<path class="st3" d="M37.4,24.3c0-0.2-0.1-0.4-0.2-0.6c-0.2-0.2-0.4-0.2-0.6-0.2c-0.2,0-0.3,0-0.5,0.1c-0.1,0.1-0.2,0.2-0.3,0.4
			s-0.1,0.3,0,0.5c0,0.2,0.1,0.3,0.2,0.4c0.2,0.2,0.4,0.2,0.6,0.2c0.2,0,0.4-0.1,0.6-0.2C37.3,24.7,37.4,24.5,37.4,24.3L37.4,24.3z"
			/>
		<path class="st3" d="M51.8,17.1c-0.2-4.1-1.9-7.9-4.8-10.8c-2.8-2.9-6.7-4.6-10.8-4.8c-2-0.1-4,0.3-5.9,1c-1.9,0.7-3.5,1.9-5,3.3
			c-0.8,0.8-1.4,1.6-2,2.5c-0.1,0.2-0.2,0.4-0.1,0.6c0,0.2,0.2,0.4,0.3,0.5c0.2,0.1,0.4,0.2,0.6,0.1c0.2,0,0.4-0.2,0.5-0.3
			c0.5-0.8,1.2-1.5,1.8-2.2c5.3-5.3,13.6-5.1,19.2,0.5c5.6,5.6,5.8,13.9,0.5,19.2c-3,2.8-6.8,4.6-10.9,5.1
			c-4.4,0.5-8.2-0.6-10.7-3.1c-3.1-3.1-4-8.4-2.5-13.9c0.1-0.2,0-0.4-0.1-0.6c-0.1-0.2-0.3-0.3-0.5-0.4c-0.2-0.1-0.4,0-0.6,0.1
			s-0.3,0.3-0.4,0.5c-0.8,2.7-1,5.5-0.6,8.3c0,0,0.6,4.3-6.2,11.2l-6.8,6.8c-0.5-0.1-1,0-1.4,0.2c-0.4,0.2-0.8,0.6-1,1
			c-0.2,0.4-0.3,0.9-0.2,1.4c0.1,0.5,0.3,0.9,0.6,1.2l3.9,3.9C9.1,48.7,9.6,49,10,49c0.5,0.1,1,0,1.4-0.2c0.4-0.2,0.8-0.6,1-1
			c0.2-0.4,0.3-0.9,0.2-1.4l6.8-6.8c5.8-5.6,9.6-6.2,11.1-6.2c1.7,0.3,3.4,0.3,5,0.1C40,33,44.2,31,47.5,27.9c1.4-1.4,2.6-3.1,3.3-5
			C51.5,21.1,51.8,19.1,51.8,17.1L51.8,17.1z M23.4,29.9c0.1,0.1,0.3,0.3,0.4,0.4c-0.6,0.3-1.3,0.7-2,1.1c0.3-0.5,0.7-1.2,1.1-2
			C23.1,29.6,23.2,29.8,23.4,29.9z M10,47.2l-3.9-3.9C6,43.2,6,43.2,6,43.1c0-0.1,0-0.1,0-0.2s0-0.1,0-0.2c0-0.1,0.1-0.1,0.1-0.2
			c0.1-0.1,0.1-0.1,0.2-0.1c0.1,0,0.1,0,0.2,0c0.1,0,0.1,0,0.2,0c0.1,0,0.1,0.1,0.2,0.1l3.9,3.9c0.1,0.1,0.1,0.1,0.1,0.2
			c0,0.1,0,0.1,0,0.2c0,0.1,0,0.1,0,0.2c0,0.1-0.1,0.1-0.1,0.2c-0.1,0.1-0.1,0.1-0.2,0.1c-0.1,0-0.1,0-0.2,0c-0.1,0-0.1,0-0.2,0
			C10.1,47.3,10,47.3,10,47.2L10,47.2z M16.9,37.1l-2-2l0.9-0.9c0.1-0.1,0.2-0.2,0.4-0.2c0.1,0,0.3,0.1,0.4,0.2l2.6,2.6
			c0.1,0.1,0.2,0.2,0.2,0.4s-0.1,0.3-0.2,0.4l-7.4,7.4l-3.4-3.4l5.3-5.3l2,2c0.1,0.1,0.2,0.1,0.3,0.2c0.1,0,0.2,0.1,0.3,0.1
			c0.1,0,0.2,0,0.3-0.1c0.1,0,0.2-0.1,0.3-0.2c0.1-0.1,0.1-0.2,0.2-0.3c0-0.1,0.1-0.2,0.1-0.3c0-0.1,0-0.2-0.1-0.3
			C17,37.2,16.9,37.1,16.9,37.1L16.9,37.1z M20.7,36.2c-0.1-0.2-0.3-0.4-0.4-0.6L17.7,33c-0.2-0.2-0.4-0.3-0.6-0.4
			c1.6-1.9,2.9-4,3.8-6.3c0.3,0.6,0.6,1.1,0.9,1.7c-0.6,1.3-1.3,2.6-2.1,3.7c-0.1,0.2-0.2,0.4-0.1,0.6c0,0.4,0.2,0.7,0.5,1
			c0.3,0.3,0.6,0.5,1,0.5c0.2,0,0.4,0,0.6-0.1c1.2-0.8,2.4-1.6,3.7-2.2c0.6,0.4,1.1,0.7,1.7,0.9C24.7,33.3,22.6,34.6,20.7,36.2
			L20.7,36.2z"/>
		<path class="st3" d="M22.9,12.6c0.2-0.4,0.4-0.9,0.6-1.3c0.1-0.2,0.1-0.4,0-0.6c-0.1-0.2-0.2-0.4-0.4-0.5
			c-0.2-0.1-0.4-0.1-0.6-0.1c-0.2,0.1-0.4,0.2-0.5,0.4c-0.2,0.4-0.4,0.9-0.6,1.4c0,0.1-0.1,0.2-0.1,0.3c0,0.1,0,0.2,0.1,0.3
			c0,0.1,0.1,0.2,0.2,0.3s0.2,0.1,0.3,0.2c0.1,0,0.2,0.1,0.3,0.1c0.1,0,0.2,0,0.3-0.1c0.1,0,0.2-0.1,0.3-0.2
			C22.8,12.8,22.9,12.7,22.9,12.6z"/>
		<path class="st3" d="M44.7,8.6C39.7,3.5,32.3,3.3,27.5,8c-2.6,2.8-4.3,6.3-4.7,10.1c-0.5,4,0.5,7.4,2.7,9.6s5.6,3.2,9.6,2.7
			c3.8-0.4,7.3-2.1,10.1-4.7C50,21,49.8,13.6,44.7,8.6z M35,28.8c-3.5,0.4-6.4-0.4-8.2-2.2c-1.8-1.8-2.6-4.7-2.2-8.2
			c0.4-3.4,1.8-6.6,4.2-9.1c0.9-1,2.1-1.7,3.3-2.2c1.2-0.5,2.6-0.7,3.9-0.7c2.9,0.1,5.6,1.4,7.6,3.4c2.1,2,3.3,4.7,3.4,7.6
			c0,1.3-0.2,2.7-0.7,3.9c-0.5,1.2-1.3,2.4-2.2,3.3C41.6,26.9,38.4,28.4,35,28.8z"/>
	</g>
</g>
<g id="Bike" class="st0">
	<path class="st6" d="M44.4,18.6c-1.2,0-2.4,0.2-3.6,0.6l-3.4-8.3h2.3c0.6-0.1,1.2,0.1,1.4,0.2c0,0,0,0.3-0.7,1
		c-0.2,0.2-0.2,0.6,0,0.8c0.2,0.2,0.6,0.2,0.8,0c0.3-0.3,1.4-1.4,1-2.3c-0.5-1-2.1-1-2.4-0.9h-3.1c-0.2,0-0.3,0.1-0.5,0.2
		c-0.1,0.1-0.1,0.3-0.1,0.5l2.2,5.3l-16.4,0l-2.4-4.8h4.3c0.3,0,0.6-0.2,0.6-0.6c0-0.3-0.2-0.6-0.6-0.6l-7.7,0
		c-0.3,0-0.6,0.2-0.6,0.6c0,0.3,0.2,0.6,0.6,0.6h2.2l2.7,5.7l-3.2,4.1c-1.8-1.2-3.9-2-6.2-2c-6-0.1-10.8,4.8-10.8,10.8
		c0,6,4.8,10.8,10.8,10.8c5.8,0,10.5-4.5,10.8-10.3h1.8c0.3,1.8,1.8,3.1,3.6,3.1c2,0,3.6-1.6,3.6-3.6c0-0.9-0.3-1.8-0.9-2.4l8.3-9.9
		l1,2.5c-3.6,1.8-6.2,5.4-6.2,9.7c0,6,4.9,10.8,10.8,10.8c6,0,10.8-4.9,10.8-10.8C55.2,23.5,50.4,18.6,44.4,18.6L44.4,18.6z
		 M21.5,17.8l4.2,8.7c-0.8,0.6-1.4,1.4-1.5,2.4l-1.8,0c-0.2-3-1.5-5.7-3.7-7.5L21.5,17.8z M12.9,28.9c0-0.1-0.1-0.1-0.1-0.2l5.1-6.5
		c1.9,1.6,3.1,4,3.2,6.6L12.9,28.9L12.9,28.9z M11.6,39.2c-5.3,0-9.6-4.4-9.6-9.7s4.4-9.7,9.7-9.7c2,0,4,0.6,5.5,1.8L12,28
		C11.9,28,11.7,28,11.6,28c-0.8,0-1.5,0.7-1.5,1.5c0,0.8,0.7,1.5,1.5,1.5c0.6,0,1.1-0.4,1.4-0.9l8.2,0
		C20.9,35.1,16.7,39.2,11.6,39.2L11.6,39.2z M27.8,32c-1.4,0-2.5-1.1-2.5-2.5c0-1.4,1.1-2.5,2.5-2.5c1.4,0,2.5,1.1,2.5,2.5
		C30.3,30.8,29.1,32,27.8,32z M29.6,26.3c-0.6-0.3-1.2-0.5-1.9-0.5c-0.3,0-0.7,0.1-1,0.2l-4.3-9h15.1L29.6,26.3z M44.4,39.2
		c-5.3,0-9.7-4.4-9.7-9.7c0-3.9,2.3-7.1,5.5-8.7l3.1,7.7c-0.3,0.3-0.5,0.6-0.5,1.1c0,0.8,0.7,1.5,1.5,1.5c0.8,0,1.5-0.7,1.5-1.5
		c0-0.8-0.7-1.5-1.5-1.5l-3.1-7.7c1-0.3,2-0.5,3.1-0.5c5.3,0,9.7,4.4,9.7,9.7C54.1,34.8,49.8,39.2,44.4,39.2L44.4,39.2z"/>
</g>
</svg>
