<?xml version="1.0" encoding="utf-8"?>
<!-- Generator: Adobe Illustrator 27.7.0, SVG Export Plug-In . SVG Version: 6.00 Build 0)  -->
<svg version="1.1" id="Calque_1" xmlns="http://www.w3.org/2000/svg" xmlns:xlink="http://www.w3.org/1999/xlink" x="0px" y="0px"
	 viewBox="0 0 36.5 36.5" style="enable-background:new 0 0 36.5 36.5;" xml:space="preserve">
<style type="text/css">
	.st0{fill:#DF231A;}
</style>
<g>
	<path class="st0" d="M22.1,17.1l-5.9,5.9l0,0l-1.5-1.5l5.9-5.9l-0.6-0.6L14,20.7l-0.1-0.1l-4-4c-0.9-0.9-2.4-0.9-3.4,0l-0.3,0.3
		c-0.9,0.9-0.8,2.5,0.1,3.5l0.9,0.9c-0.5,0.1-1,0.3-1.4,0.7l-0.1,0.1c-0.9,0.9-0.9,2.4,0,3.4l1.7,1.7L5.7,29
		c-0.1,0.1-0.1,0.2-0.1,0.3c0,0.1,0.1,0.2,0.1,0.3l2.2,2.2c0.1,0.1,0.2,0.1,0.3,0.1s0.2,0,0.3-0.1l1.8-1.8l0.2,0.3l1.8,1.8
		c0.5,0.5,1.1,0.7,1.7,0.7c0.6,0,1.3-0.3,1.8-0.8l0.1-0.2c0.4-0.4,0.4-1,0.5-1.5l0.9,0.9c0.4,0.4,1,0.7,1.7,0.7
		c0.6,0,1.2-0.2,1.7-0.7l0.2-0.2c0.9-0.9,0.9-2.4,0-3.4l-4-4l0,0l5.9-5.9L22.1,17.1z M8.3,30.9l-1.6-1.6l1.4-1.4L8.2,28l1.5,1.5
		L8.3,30.9z M15,31.1l-0.2,0.2c-0.6,0.6-1.5,0.6-2,0l-6.4-6.4c-0.6-0.6-0.6-1.5,0-2l0.2-0.2c0.3-0.3,0.6-0.4,1-0.4
		c0.4,0,0.7,0.1,1,0.4l6.4,6.4C15.6,29.6,15.6,30.5,15,31.1z M20.1,28.4c0.3,0.3,0.4,0.6,0.4,1c0,0.4-0.1,0.7-0.4,1l-0.2,0.2
		c-0.3,0.3-0.6,0.4-1,0.4c-0.4,0-0.7-0.1-1-0.4L7,19.7c-0.6-0.6-0.6-1.5,0-2l0.2-0.2c0.3-0.3,0.6-0.4,1-0.4s0.7,0.1,1,0.4L20.1,28.4
		z"/>
	<path class="st0" d="M30.5,16.1c0.5-0.1,1-0.3,1.4-0.7l0.1-0.1c0.9-0.9,0.9-2.4,0-3.4l-1.7-1.7L32,8.4c0.1-0.1,0.1-0.2,0.1-0.3
		S32,7.9,32,7.8l-2.2-2.2c-0.1-0.1-0.2-0.1-0.3-0.1s-0.2,0-0.3,0.1l-1.8,1.8l-0.2-0.3l-1.8-1.8c-0.5-0.5-1.1-0.7-1.7-0.7
		c-0.6,0-1.3,0.3-1.8,0.8l-0.1,0.2c-0.4,0.4-0.4,1-0.5,1.5l-0.9-0.9c-0.4-0.4-1-0.7-1.7-0.7c-0.6,0-1.2,0.2-1.7,0.7l-0.2,0.2
		c-0.9,0.9-0.9,2.4,0,3.4l4,4l0.2,0.1l0.2,0.2l0.3,0.3l1.6,1.6l0.2,0.1l0.3,0.3l0.3,0.3l4,4c0.9,0.9,2.4,0.9,3.4,0l0.3-0.3
		c0.9-0.9,0.8-2.5-0.1-3.5L30.5,16.1z M29.4,6.5L31,8.1l-1.4,1.4l-0.1-0.1L28,7.9L29.4,6.5z M27.7,7.7L27.7,7.7L27.7,7.7L27.7,7.7z
		 M22.7,6.3l0.2-0.2c0.6-0.6,1.5-0.6,2,0l6.4,6.4c0.6,0.6,0.6,1.5,0,2l-0.2,0.2c-0.3,0.3-0.6,0.4-1,0.4c-0.4,0-0.7-0.1-1-0.4
		l-6.4-6.4C22.1,7.8,22.1,6.9,22.7,6.3z M30.7,19.7l-0.2,0.2c-0.3,0.3-0.6,0.4-1,0.4s-0.7-0.1-1-0.4L17.6,9c-0.3-0.3-0.4-0.6-0.4-1
		c0-0.4,0.1-0.7,0.4-1l0.2-0.2c0.3-0.3,0.6-0.4,1-0.4c0.4,0,0.7,0.1,1,0.4l10.9,10.9C31.3,18.3,31.3,19.2,30.7,19.7z"/>
</g>
</svg>
