<?xml version="1.0" encoding="utf-8"?>
<!-- Generator: Adobe Illustrator 27.7.0, SVG Export Plug-In . SVG Version: 6.00 Build 0)  -->
<svg version="1.1" id="Calque_1" xmlns="http://www.w3.org/2000/svg" xmlns:xlink="http://www.w3.org/1999/xlink" x="0px" y="0px"
	 viewBox="0 0 36.5 36.5" style="enable-background:new 0 0 36.5 36.5;" xml:space="preserve">
<style type="text/css">
	.st0{fill:#DF231A;}
</style>
<g>
	<path class="st0" d="M14.1,26.7c1.4,0,2.6-0.3,3.6-0.8c1.8-0.8,3.1-2.2,3.8-4.1l0.1-0.2l-0.7,1.4L35,2.5c0-0.2,0-0.3-0.1-0.5
		c-0.1-0.1-0.2-0.2-0.4-0.2l-0.1,0c-0.1-0.1-0.2-0.1-0.4,0C34,1.9,33.9,2,33.8,2.2L20.9,20.1l-6.8-4.5c-1.4-0.9-3-1.1-4.5-0.7
		c-1.9,0.5-2.9,2.3-3.5,3.7c-0.1,0.2-0.2,0.4-0.3,0.6C6,19.1,6.4,19,6.7,19h0.1c0,0,0-0.1,0.1-0.1c0.5-1.1,1.5-2.6,2.7-3
		c1.2-0.3,2.5-0.1,3.5,0.6l7.1,4.8l-0.1,0.2c-0.5,1.4-1.6,2.5-3.1,3.3c-1.1,0.7-2.4,0.9-3.9,0.7c0,0.4-0.1,0.8-0.2,1.1
		c0.1,0,0.3,0,0.4,0C13.7,26.7,13.9,26.7,14.1,26.7z"/>
	<path class="st0" d="M7,20.1c-2.6,0-4.7,2.1-4.7,4.7s2.1,4.7,4.7,4.7s4.7-2.1,4.7-4.7S9.5,20.1,7,20.1z M7,28.4
		c-2,0-3.5-1.6-3.5-3.5c0-2,1.6-3.5,3.5-3.5s3.5,1.6,3.5,3.5C10.5,26.8,8.9,28.4,7,28.4z"/>
	<path class="st0" d="M8.9,32c0-0.2-0.1-0.3-0.3-0.3H5.2c-0.2,0-0.3,0.1-0.3,0.3c0,0.2,0.1,0.3,0.3,0.3h1.5v2c0,0.2,0.1,0.3,0.3,0.3
		c0.2,0,0.3-0.1,0.3-0.3v-2h1.4C8.8,32.2,8.9,32.1,8.9,32z"/>
</g>
</svg>
