<?xml version="1.0" encoding="utf-8"?>
<!-- Generator: Adobe Illustrator 27.7.0, SVG Export Plug-In . SVG Version: 6.00 Build 0)  -->
<svg version="1.1" id="Calque_1" xmlns="http://www.w3.org/2000/svg" xmlns:xlink="http://www.w3.org/1999/xlink" x="0px" y="0px"
	 viewBox="0 0 36.5 36.5" style="enable-background:new 0 0 36.5 36.5;" xml:space="preserve">
<style type="text/css">
	.st0{fill:#DF231A;}
</style>
<path class="st0" d="M7.5,26.1c0,0.6,0.3,1.1,0.7,1.5l1.1,0.9c0.4,0.3,0.9,0.5,1.4,0.5H11c0.6-0.1,1.1-0.4,1.4-0.8l3.4-4.9l0.2,0.1
	c1.2,0.5,2.1,0.8,3.1,0.8c0.6,0,1.2-0.1,1.9-0.3c1.7-0.6,3.4-1.8,5.2-3.9l0.2-0.2h0.4c1.8,0,3.1-1.4,3.1-3.2
	c-0.1-1.1-0.8-2.2-1.9-2.8l-0.1,0l0-0.1c-0.3-2-1.3-3.7-2.8-5c-1.5-1.2-3.3-1.9-5.1-1.9c-0.2,0-0.5,0-0.7,0
	c-2.2,0.2-4.2,1.2-5.5,2.9c-1.7,2-2.6,3.8-3,5.8c-0.2,1.8,0.3,3.5,1.4,4.8l0.1,0.1L8,24.5C7.6,25,7.4,25.5,7.5,26.1z M29,16.5
	c-0.1,1.3-1.1,2.3-2.3,2.3c-1.3,0-2.3-1-2.3-2.3s1-2.3,2.3-2.3C28,14.2,29,15.2,29,16.5z M12.1,14.1c0.4-1.2,1.2-2.6,2.4-4
	c1.3-1.5,3-2.4,4.8-2.5l0.6,0c1.6,0,3.3,0.6,4.5,1.6c1.1,0.9,1.9,2.2,2.4,3.8l0.1,0.3h-0.3c-1.8,0-3.2,1.4-3.2,3.2
	c0,1.1,0.7,2.3,1.6,2.7l0.2,0.1l-0.2,0.2c-1,1.1-2.2,2.1-3.2,2.7l-0.1,0.1l-9.7-8.2L12.1,14.1z M11.8,15.7l0-0.4l9,7.6L20.5,23
	c-0.5,0.1-0.9,0.2-1.4,0.2c-1.5,0-3-0.6-4.6-1.9l0,0C12.4,19.5,11.6,17.8,11.8,15.7z M8.9,25.3l4.1-4.1l0.1,0.1
	c0.1,0.1,0.2,0.2,0.3,0.3c0.2,0.2,0.4,0.3,0.5,0.6c0.3,0.3,0.5,0.4,0.8,0.6l0.2,0.1l-3.4,4.8c-0.1,0.3-0.5,0.5-0.8,0.5
	c-0.3,0-0.6,0-0.8-0.3L8.9,27c-0.3-0.3-0.4-0.5-0.4-0.9S8.6,25.5,8.9,25.3z"/>
</svg>
