<?xml version="1.0" encoding="utf-8"?>
<!-- Generator: Adobe Illustrator 27.7.0, SVG Export Plug-In . SVG Version: 6.00 Build 0)  -->
<svg version="1.1" id="Calque_1" xmlns="http://www.w3.org/2000/svg" xmlns:xlink="http://www.w3.org/1999/xlink" x="0px" y="0px"
	 viewBox="0 0 36.5 36.5" style="enable-background:new 0 0 36.5 36.5;" xml:space="preserve">
<style type="text/css">
	.st0{fill:#DF231A;}
</style>
<g>
	<path class="st0" d="M19.8,4.3c-0.1-0.1-0.2-0.2-0.3-0.4c-0.1-0.1-0.3-0.3-0.4-0.4c-0.2-0.2-0.7-0.4-0.7-0.4l0,0
		C16.4,2.2,14,3,13.1,5c-0.3,0.6-0.4,1.2-0.4,1.9c0,0.3,0.1,0.8,0.1,0.8c0.1,0.3,0.2,0.7,0.4,1c0,0,0.3,0.5,0.5,0.7l0.1,0.1
		c1.6,1.6,4.1,1.6,5.6,0c1.2-1.2,1.5-3,0.8-4.5C20.3,5,20.1,4.7,19.8,4.3z M14.4,8.9c-1.2-1.2-1.2-3.1,0-4.4
		c1.1,1.1,1.2,2.9,0.2,4.2C14.5,8.8,14.4,8.8,14.4,8.9L14.4,8.9z M16.7,9.9c-0.6,0-1.2-0.2-1.7-0.5c0.1-0.1,0.1-0.1,0.2-0.2
		C16.4,7.7,16.3,5.4,15,4c1-0.7,2.3-0.7,3.4-0.1c-0.2,0.2-0.4,0.3-0.5,0.5c-1.2,1.5-1.1,3.8,0.2,5.2C17.6,9.8,17.1,9.9,16.7,9.9
		L16.7,9.9z M18.9,9c-0.1,0.1-0.2,0.2-0.3,0.2l0,0c-1.1-1.1-1.3-3-0.3-4.2c0.2-0.2,0.3-0.4,0.5-0.5l0,0C20.2,5.7,20.2,7.7,18.9,9
		L18.9,9z"/>
</g>
<path class="st0" d="M11.4,23.1h-0.1c-0.5,0-1.2,0.1-1.8,0.6l-8.1,7.5H1.4c-0.5,0.5-0.4,1.5,0.1,2l2.2,2.2c0.2,0.3,0.4,0.5,0.6,0.5
	h0.3c0.4,0,0.8-0.2,1.1-0.4l7.3-8.1c0.5-0.5,0.6-1.3,0.6-1.8v-0.1l0.1-0.1c3.3-1.5,7.1-2.2,10.2-2.8l0.3-0.1l0.4,0
	c2.5-0.5,4.9-1.8,6.9-3.8c2.5-2.5,3.9-5.8,3.8-9c0-2.5-0.9-4.7-2.5-6.2c-1.8-1.8-4.4-2.6-7.3-2.3c-1.5,0.2-3.1,0.7-4.7,1.5l0.4,1
	c1.4-0.7,2.8-1.2,4.4-1.4c0.7-0.1,1.6-0.1,2.6,0.1c1.3,0.2,2.7,0.9,3.9,1.9c1.4,1.4,2.2,3.3,2.2,5.4c0,2.9-1.3,5.9-3.6,8.2
	c-2,2-4.5,3.3-7.1,3.6c-2.6,0.3-4.8-0.4-6.5-2.1c-1.6-1.6-2.4-3.9-2.2-6.5c0-0.3,0.1-0.5,0.1-0.7c0-0.2,0-0.3,0.1-0.4l-1-0.1
	c0,0,0,0,0,0.1c0,0,0,0.1,0,0.1v0.5l0,0.3c-0.5,3.2-1.1,7.1-2.6,10.3L11.4,23.1z M12.5,23.4c0.8-1.9,1.4-3.8,1.8-5.8l0.1-0.7
	l0.2,0.6c0.7,1.9,2.4,3.5,4.4,4.4l0.6,0.3L19,22.4c-1.8,0.3-3.5,0.9-5.7,1.9l-0.1,0.1l-0.8-0.8L12.5,23.4z M12.2,26.5l-7.4,8.2H4.5
	l-2.3-2.2v-0.4l0.1-0.1l8-7.4c0.5-0.5,1.3-0.5,1.8,0C12.6,25.1,12.6,25.9,12.2,26.5z"/>
</svg>
