<svg width="25" height="25" xmlns="http://www.w3.org/2000/svg"><path style="fill:#000;stroke-width:.00555556" d="M12.19 24.994a12.48 12.48 0 0 1-5.276-1.315A12.488 12.488 0 0 1 .028 11.694 12.5 12.5 0 0 1 14.064.1a12.496 12.496 0 0 1 9.275 18.622A12.502 12.502 0 0 1 12.98 24.99c-.215.008-.6.01-.79.005zm.907-1.007c.196-.012.331-.022.525-.04.15-.014.154-.015.18-.032a8.65 8.65 0 0 1 .148-.084 9.489 9.489 0 0 0 1.718-1.244c1.44-1.298 2.689-3.137 3.691-5.434a25.23 25.23 0 0 0 1.293-3.78c.06-.236.146-.6.142-.603a15.708 15.708 0 0 0-2.992-.45c-.01-.003-.013 0-.016.01l-.028.145c-.198 1.034-.573 2.227-1.061 3.37-.251.588-.56 1.221-.873 1.788a20.318 20.318 0 0 1-4.252 5.317 20.57 20.57 0 0 1-.893.756c-.083.065-.15.12-.15.122-.002.007.34.06.554.086.348.043.593.062 1.061.083.122.005.81-.002.953-.01zm-3.596-.63a20.12 20.12 0 0 0 2.849-2.58 18.984 18.984 0 0 0 3.593-5.719c.316-.787.57-1.589.748-2.352.027-.117.087-.396.087-.406 0-.007-.139-.005-.47.006a18.411 18.411 0 0 0-3.362.435l-.035.128a18.48 18.48 0 0 1-.68 2.034 18.625 18.625 0 0 1-1.839 3.516c-.956 1.42-2.058 2.577-3.3 3.464-.126.09-.416.284-.535.358a.637.637 0 0 0-.08.054c0 .006.224.139.379.226a11.562 11.562 0 0 0 2.4 1.012c.006 0 .116-.08.245-.176zm7.04-.09c.818-.307 1.585-.699 2.312-1.18.531-.354.965-.694 1.452-1.14.134-.122.522-.51.643-.642.445-.487.79-.926 1.138-1.452a11.479 11.479 0 0 0 1.834-4.984l.003-.027-.04.06a4.66 4.66 0 0 1-.041.064c-.001 0-.025-.013-.053-.03-.4-.242-1.064-.545-1.7-.773a5.643 5.643 0 0 0-.332-.11c-.002 0-.02.079-.043.173a25.904 25.904 0 0 1-1.599 4.68c-.213.469-.47.982-.708 1.416-.852 1.555-1.852 2.877-2.932 3.878-.06.057-.122.113-.136.126l-.025.024.07-.024.158-.058zM5.653 21.622a10.48 10.48 0 0 0 1.87-1.366c.134-.12.15-.138.14-.145a34.216 34.216 0 0 0-.11-.066c-1.914-1.176-3.47-3.126-4.596-5.76a14.081 14.081 0 0 1-.387-.993A.502.502 0 0 1 3 12.69a.502.502 0 0 1 .41.145c.069.073.083.1.163.313.848 2.25 1.991 4.012 3.394 5.231.413.36.862.68 1.318.942l.105.06.012-.014.087-.1c.467-.531.949-1.183 1.354-1.83.173-.278.32-.527.315-.536a16.494 16.494 0 0 1-2.027-1.923A16.38 16.38 0 0 1 4.327 7.37a.994.994 0 0 1-.034-.233c0-.224.14-.411.36-.479a.353.353 0 0 1 .136-.015c.077 0 .09.002.135.015a.5.5 0 0 1 .325.29c.01.025.027.09.045.178a15.363 15.363 0 0 0 4.867 8.473c.13.115.454.39.477.404.009.006.132-.241.277-.558a18.493 18.493 0 0 0 1.021-2.79c.003-.017 0-.023-.067-.099a19.057 19.057 0 0 1-2.31-3.247 19.15 19.15 0 0 1-.685-1.352c-.843-1.85-1.363-3.887-1.455-5.7l-.004-.073-.162.083a11.161 11.161 0 0 0-1.29.77c-.484.34-.843.627-1.268 1.016-.135.124-.522.51-.648.648a11.497 11.497 0 0 0-3.013 8.694 11.495 11.495 0 0 0 4.526 8.278l.092-.05zm18.345-8.808c.006-.12 0-.723-.008-.857a11.61 11.61 0 0 0-.317-2.186l-.172-.087C21.737 8.803 19.632 8.2 17.62 8c-.61-.06-1.085-.081-1.725-.076a14.863 14.863 0 0 0-3.612.466c-.171.044-.176.045-.244.045a.495.495 0 0 1-.416-.219.499.499 0 0 1 .3-.762c.325-.088.793-.194 1.163-.262a16.26 16.26 0 0 1 3.925-.24c2.083.122 4.216.635 6.186 1.489l.073.03a11.573 11.573 0 0 0-1.49-2.763c-.013-.021-.018-.025-.035-.025-.05 0-.125-.023-.287-.088-1.937-.775-4.09-1.307-5.997-1.48A14.72 14.72 0 0 0 14 4.047c-.369 0-.521.004-.822.022-.86.05-1.684.188-2.435.406-.24.07-.22.065-.307.065a.497.497 0 0 1-.364-.831c.081-.087.142-.119.328-.173.863-.252 1.728-.4 2.675-.459.313-.02.426-.023.797-.026.447-.004.76.004 1.19.032 1.637.104 3.42.455 5.2 1.024.08.026.147.046.148.045a11.518 11.518 0 0 0-7.524-3.148c-.198-.007-.76-.004-.933.006a11.548 11.548 0 0 0-3.525.732l-.024.009.003.206c.015.886.185 2.004.466 3.053.627 2.344 1.782 4.542 3.42 6.506.185.222.246.291.256.29a18.903 18.903 0 0 1 5.415-.476c1.967.117 3.89.578 5.51 1.32.068.031.21.1.318.155l.198.099a.594.594 0 0 0 .007-.093z"/></svg>
