<svg width="25" height="25" viewBox="0 0 25 25" fill="none" xmlns="http://www.w3.org/2000/svg">
<path d="M7.90899 1.60547C7.90899 1.60547 7.60327 7.15242 12.4893 12.5011C12.4893 12.5011 10.9602 19.394 5.60938 22.2131" stroke="#DE001A" stroke-linejoin="round"/>
<path d="M4.78906 7.13672C5.53058 10.9605 7.65565 14.3768 10.7578 16.7321" stroke="#DE001A" stroke-linecap="round" stroke-linejoin="round"/>
<path d="M3.05469 13.1836C3.98305 15.7081 5.58392 18.4726 8.31784 19.9066" stroke="#DE001A" stroke-linecap="round" stroke-linejoin="round"/>
<path d="M24.1134 13.55C24.1134 13.55 19.6557 10.6523 12.6016 12.3077" stroke="#DE001A" stroke-linejoin="round"/>
<path d="M23.8497 9.30166C22.3697 8.53626 17.5804 6.46368 12.0352 7.939" stroke="#DE001A" stroke-linecap="round" stroke-linejoin="round"/>
<path d="M21.7735 5.18535C20.3395 4.5954 15.014 2.63806 10.4375 4.04586" stroke="#DE001A" stroke-linecap="round" stroke-linejoin="round"/>
<path d="M17.3436 11.9375C17.3389 11.9723 16.5245 18.8549 9.60156 23.903" stroke="#DE001A" stroke-linecap="round" stroke-linejoin="round"/>
<path d="M21.3732 12.4414C21.3671 12.4771 19.7951 21.2176 14.0938 24.3209" stroke="#DE001A" stroke-linecap="round" stroke-linejoin="round"/>
<circle cx="12.5" cy="12.5" r="12" stroke="#DE001A"/>
</svg>
