<?xml version="1.0" encoding="utf-8"?>
<!-- Generator: Adobe Illustrator 27.7.0, SVG Export Plug-In . SVG Version: 6.00 Build 0)  -->
<svg version="1.1" id="Calque_1" xmlns="http://www.w3.org/2000/svg" xmlns:xlink="http://www.w3.org/1999/xlink" x="0px" y="0px"
	 viewBox="0 0 36.5 36.5" style="enable-background:new 0 0 36.5 36.5;" xml:space="preserve">
<style type="text/css">
	.st0{fill:#DF231A;}
</style>
<path class="st0" d="M18.3,3.4c-2.5,0-4.6,2.1-4.6,4.6s2.1,4.6,4.6,4.6c2.5,0,4.5-2,4.6-4.6C22.9,5.5,20.8,3.4,18.3,3.4z M18.3,11.6
	c-2,0-3.6-1.6-3.6-3.6s1.6-3.6,3.6-3.6S21.9,6,21.9,8S20.3,11.6,18.3,11.6z"/>
<path class="st0" d="M33.4,22.2c0-1.3-0.9-2.2-2.2-2.2h-3.8l0-0.1l-1.6-4c-0.5-1.2-1.5-2.1-2.6-2.3c-3-0.8-6.8-0.8-9.8,0
	c-1.2,0.3-2.1,1.2-2.6,2.3L9.2,20H5.4c-1.3,0-2.2,0.9-2.2,2.2s0.9,2.2,2.2,2.2h4.4c1.1,0,2-0.6,2.5-1.5l0.9-1.8l0.2,2.9
	c0.1,0.7-0.4,1.4-0.8,1.7l-4.6,3c-0.9,0.5-1.4,1.4-1.3,2.5c0.1,1.5,1.4,2.6,2.9,2.6h1.7c0.2,0,0.5-0.3,0.5-0.5s-0.3-0.5-0.5-0.5H9.7
	c-1,0-1.9-0.7-2-1.7c-0.1-0.7,0.4-1.4,0.8-1.7l4.6-3c0.9-0.6,1.4-1.6,1.3-2.6L14,19.2l0-0.1c-0.1-0.2-0.2-0.4-0.4-0.4l0,0
	c-0.1,0-0.1,0-0.2,0c-0.1,0.1-0.2,0.1-0.2,0.2l-1.6,3.3c-0.3,0.7-1,1.1-1.7,1.1H5.4c-0.8,0-1.3-0.7-1.3-1.3c0-0.8,0.7-1.3,1.3-1.3
	h3.8c0.4,0,0.8-0.2,1-0.6l1.6-4c0.4-0.9,1.2-1.6,2-1.8c2.7-0.8,6.2-0.8,9.2,0c0.9,0.2,1.6,0.9,2,1.8l1.6,4c0.2,0.4,0.6,0.6,1,0.6
	h3.7c0.8,0,1.3,0.7,1.3,1.3c0,0.8-0.7,1.3-1.3,1.3h-4.4c-0.7,0-1.4-0.4-1.7-1.1L23.6,19c-0.1-0.2-0.2-0.2-0.5-0.2
	c-0.2,0-0.4,0.2-0.4,0.4l-0.4,4.5c-0.1,1,0.4,2,1.3,2.6l4.6,3c0.5,0.4,0.8,1.1,0.8,1.7c-0.1,1-1,1.7-2,1.7H15.4
	c-1,0-1.9-0.9-1.9-1.9s0.9-1.9,1.9-1.9h7c0.2,0,0.5-0.2,0.5-0.4c0-0.2-0.3-0.5-0.5-0.5h-7c-1.5,0-2.8,1.3-2.8,2.8s1.3,2.8,2.8,2.8
	h11.5c1.5,0,2.9-1.1,3-2.5c0.1-1-0.4-1.9-1.3-2.5l-4.6-3c-0.6-0.3-1-1-0.8-1.7l0.2-2.9l0.9,1.8c0.5,1,1.4,1.5,2.5,1.5h4.4
	C32.5,24.4,33.4,23.5,33.4,22.2z"/>
</svg>
