<svg width="13" height="13" viewBox="0 0 13 13" fill="none" xmlns="http://www.w3.org/2000/svg">
<path d="M1.8125 12.75C1.5625 12.75 1.34375 12.6562 1.15625 12.4688C0.96875 12.2812 0.875 12.0625 0.875 11.8125V2.125C0.875 1.875 0.96875 1.65625 1.15625 1.46875C1.34375 1.28125 1.5625 1.1875 1.8125 1.1875H2.82812V0.25H3.84375V1.1875H9.15625V0.25H10.1719V1.1875H11.1875C11.4375 1.1875 11.6562 1.28125 11.8438 1.46875C12.0312 1.65625 12.125 1.875 12.125 2.125V11.8125C12.125 12.0625 12.0312 12.2812 11.8438 12.4688C11.6562 12.6562 11.4375 12.75 11.1875 12.75H1.8125ZM1.8125 11.8125H11.1875V5.09375H1.8125V11.8125ZM1.8125 4.15625H11.1875V2.125H1.8125V4.15625ZM1.8125 4.15625V2.125V4.15625ZM6.5 7.75C6.32292 7.75 6.17448 7.6901 6.05469 7.57031C5.9349 7.45052 5.875 7.30208 5.875 7.125C5.875 6.94792 5.9349 6.79948 6.05469 6.67969C6.17448 6.5599 6.32292 6.5 6.5 6.5C6.67708 6.5 6.82552 6.5599 6.94531 6.67969C7.0651 6.79948 7.125 6.94792 7.125 7.125C7.125 7.30208 7.0651 7.45052 6.94531 7.57031C6.82552 7.6901 6.67708 7.75 6.5 7.75ZM4 7.75C3.82292 7.75 3.67448 7.6901 3.55469 7.57031C3.4349 7.45052 3.375 7.30208 3.375 7.125C3.375 6.94792 3.4349 6.79948 3.55469 6.67969C3.67448 6.5599 3.82292 6.5 4 6.5C4.17708 6.5 4.32552 6.5599 4.44531 6.67969C4.5651 6.79948 4.625 6.94792 4.625 7.125C4.625 7.30208 4.5651 7.45052 4.44531 7.57031C4.32552 7.6901 4.17708 7.75 4 7.75ZM9 7.75C8.82292 7.75 8.67448 7.6901 8.55469 7.57031C8.4349 7.45052 8.375 7.30208 8.375 7.125C8.375 6.94792 8.4349 6.79948 8.55469 6.67969C8.67448 6.5599 8.82292 6.5 9 6.5C9.17708 6.5 9.32552 6.5599 9.44531 6.67969C9.5651 6.79948 9.625 6.94792 9.625 7.125C9.625 7.30208 9.5651 7.45052 9.44531 7.57031C9.32552 7.6901 9.17708 7.75 9 7.75ZM6.5 10.25C6.32292 10.25 6.17448 10.1901 6.05469 10.0703C5.9349 9.95052 5.875 9.80208 5.875 9.625C5.875 9.44792 5.9349 9.29948 6.05469 9.17969C6.17448 9.0599 6.32292 9 6.5 9C6.67708 9 6.82552 9.0599 6.94531 9.17969C7.0651 9.29948 7.125 9.44792 7.125 9.625C7.125 9.80208 7.0651 9.95052 6.94531 10.0703C6.82552 10.1901 6.67708 10.25 6.5 10.25ZM4 10.25C3.82292 10.25 3.67448 10.1901 3.55469 10.0703C3.4349 9.95052 3.375 9.80208 3.375 9.625C3.375 9.44792 3.4349 9.29948 3.55469 9.17969C3.67448 9.0599 3.82292 9 4 9C4.17708 9 4.32552 9.0599 4.44531 9.17969C4.5651 9.29948 4.625 9.44792 4.625 9.625C4.625 9.80208 4.5651 9.95052 4.44531 10.0703C4.32552 10.1901 4.17708 10.25 4 10.25ZM9 10.25C8.82292 10.25 8.67448 10.1901 8.55469 10.0703C8.4349 9.95052 8.375 9.80208 8.375 9.625C8.375 9.44792 8.4349 9.29948 8.55469 9.17969C8.67448 9.0599 8.82292 9 9 9C9.17708 9 9.32552 9.0599 9.44531 9.17969C9.5651 9.29948 9.625 9.44792 9.625 9.625C9.625 9.80208 9.5651 9.95052 9.44531 10.0703C9.32552 10.1901 9.17708 10.25 9 10.25Z" fill="#DE001A"/>
</svg>
