<svg width="20" height="19" viewBox="0 0 20 19" fill="none" xmlns="http://www.w3.org/2000/svg">
<path d="M2.87467 16.4094C2.56226 16.4094 2.2889 16.2922 2.05459 16.0578C1.82028 15.8233 1.70312 15.5498 1.70312 15.2373V3.51589C1.70312 3.20332 1.82028 2.92982 2.05459 2.69539C2.2889 2.46096 2.56226 2.34375 2.87467 2.34375H16.4646C16.777 2.34375 17.0504 2.46096 17.2847 2.69539C17.519 2.92982 17.6362 3.20332 17.6362 3.51589V15.2373C17.6362 15.5498 17.519 15.8233 17.2847 16.0578C17.0504 16.2922 16.777 16.4094 16.4646 16.4094H2.87467ZM2.87467 15.2373H16.4646V3.51589H2.87467V15.2373ZM4.20243 13.2837H8.10759V11.7209H4.20243V13.2837ZM11.6613 11.7209L15.5274 7.8528L14.4144 6.73927L11.6613 9.51333L10.5483 8.3998L9.45487 9.51333L11.6613 11.7209ZM4.20243 10.158H8.10759V8.59516H4.20243V10.158ZM4.20243 7.03231H8.10759V5.46945H4.20243V7.03231ZM2.87467 15.2373V3.51589V15.2373Z" fill="#DE001A"/>
</svg>
