<svg width="10" height="16" viewBox="0 0 10 16" fill="none" xmlns="http://www.w3.org/2000/svg">
<path d="M1.61292 14.3927C0.688316 14.1562 3.96052e-07 13.2569 4.42864e-07 12.186C4.89694e-07 11.1146 0.688777 10.216 1.61293 9.97948L1.61293 1.02315C1.61293 0.734081 1.82939 0.5 2.09671 0.5C2.36403 0.5 2.58049 0.734081 2.58049 1.02315L2.58049 9.97948C3.5051 10.216 4.19342 11.1151 4.19342 12.186C4.19342 13.2576 3.50464 14.1562 2.58049 14.3927L2.58049 14.9767C2.58049 15.2658 2.36403 15.4999 2.09671 15.4999C1.82939 15.4999 1.61292 15.2658 1.61292 14.9767L1.61292 14.3927ZM3.22585 12.186C3.22585 11.5129 2.71956 10.9652 2.09669 10.9652C1.47427 10.9652 0.967524 11.5124 0.967524 12.186C0.967524 12.859 1.47381 13.407 2.09669 13.407C2.7191 13.407 3.22585 12.8595 3.22585 12.186ZM7.41928 6.02052C6.4949 5.784 5.80636 4.88494 5.80636 3.81402C5.80636 2.74241 6.49536 1.84379 7.41928 1.60726L7.41928 1.02328C7.41928 0.734205 7.63597 0.500124 7.90329 0.500124C8.17039 0.500124 8.38708 0.734205 8.38708 1.02328L8.38708 1.60726C9.31168 1.84378 10 2.74309 10 3.81402C10 4.88538 9.31122 5.784 8.38708 6.02052L8.38707 14.9768C8.38707 15.2659 8.17038 15.5 7.90329 15.5C7.63597 15.5 7.41928 15.2659 7.41928 14.9768L7.41928 6.02052ZM9.03221 3.81402C9.03221 3.14095 8.52614 2.59297 7.90327 2.59297C7.28086 2.59297 6.77411 3.14046 6.77411 3.81402C6.77411 4.48708 7.2804 5.03481 7.90327 5.03481C8.52569 5.03481 9.03221 4.48757 9.03221 3.81402Z" fill="#161616"/>
</svg>
