<svg width="14" height="18" viewBox="0 0 14 18" fill="none" xmlns="http://www.w3.org/2000/svg"><path d="M3.4125 16.65H10.5875V13.7925C10.5875 12.7425 10.2411 11.8387 9.54844 11.0812C8.85573 10.3237 8.00625 9.945 7 9.945C5.99375 9.945 5.14427 10.3237 4.45156 11.0812C3.75885 11.8387 3.4125 12.7425 3.4125 13.7925V16.65ZM7 8.055C8.00625 8.055 8.85573 7.67625 9.54844 6.91875C10.2411 6.16125 10.5875 5.25 10.5875 4.185V1.35H3.4125V4.185C3.4125 5.25 3.75885 6.16125 4.45156 6.91875C5.14427 7.67625 5.99375 8.055 7 8.055ZM0 18V16.65H2.1V13.7925C2.1 12.7425 2.36615 11.7787 2.89844 10.9012C3.43073 10.0238 4.17083 9.39 5.11875 9C4.17083 8.61 3.43073 7.9725 2.89844 7.0875C2.36615 6.2025 2.1 5.235 2.1 4.185V1.35H0V0H14V1.35H11.9V4.185C11.9 5.235 11.6339 6.2025 11.1016 7.0875C10.5693 7.9725 9.82917 8.61 8.88125 9C9.82917 9.39 10.5693 10.0238 11.1016 10.9012C11.6339 11.7787 11.9 12.7425 11.9 13.7925V16.65H14V18H0Z" fill="#3586E2"/></svg>