<svg width="20" height="19" viewBox="0 0 20 19" fill="none" xmlns="http://www.w3.org/2000/svg">
<path d="M9.6697 17.191C8.58927 17.191 7.57393 16.9859 6.62367 16.5756C5.67342 16.1654 4.84682 15.6086 4.14389 14.9053C3.44097 14.2021 2.88448 13.3751 2.47444 12.4243C2.0644 11.4736 1.85938 10.4577 1.85938 9.37676C1.85938 8.29579 2.0644 7.27993 2.47444 6.3292C2.88448 5.37846 3.44097 4.55145 4.14389 3.84817C4.84682 3.14489 5.67342 2.58812 6.62367 2.17787C7.57393 1.76762 8.58927 1.5625 9.6697 1.5625H10.2555V7.93112C10.5418 8.04833 10.7762 8.23718 10.9584 8.49765C11.1406 8.75813 11.2318 9.05116 11.2318 9.37676C11.2318 9.80654 11.0788 10.1745 10.7729 10.4805C10.467 10.7866 10.0993 10.9396 9.6697 10.9396C9.24013 10.9396 8.87239 10.7866 8.56649 10.4805C8.26058 10.1745 8.10763 9.80654 8.10763 9.37676C8.10763 9.05116 8.19875 8.75813 8.38099 8.49765C8.56323 8.23718 8.79754 8.04833 9.08392 7.93112V5.89941C8.2378 6.04268 7.53813 6.43664 6.9849 7.08132C6.43167 7.726 6.15505 8.49114 6.15505 9.37676C6.15505 10.3535 6.49675 11.1838 7.18016 11.8676C7.86356 12.5513 8.69341 12.8932 9.6697 12.8932C10.646 12.8932 11.4758 12.5513 12.1592 11.8676C12.8426 11.1838 13.1843 10.3535 13.1843 9.37676C13.1843 8.84278 13.0802 8.35439 12.8719 7.91159C12.6637 7.46878 12.3773 7.08458 12.0128 6.75898L12.8524 5.91895C13.308 6.34873 13.6725 6.85992 13.9458 7.4525C14.2192 8.04508 14.3559 8.6865 14.3559 9.37676C14.3559 10.6791 13.9003 11.7862 12.9891 12.6978C12.0779 13.6095 10.9714 14.0653 9.6697 14.0653C8.36798 14.0653 7.26151 13.6095 6.35031 12.6978C5.43911 11.7862 4.9835 10.6791 4.9835 9.37676C4.9835 8.16555 5.37402 7.12039 6.15505 6.24129C6.93608 5.36218 7.91237 4.851 9.08392 4.70774V2.75417C7.37867 2.89744 5.94352 3.60072 4.77848 4.86402C3.61344 6.12733 3.03092 7.63157 3.03092 9.37676C3.03092 11.2261 3.67527 12.7955 4.96398 14.0848C6.25268 15.3742 7.82125 16.0189 9.6697 16.0189C11.5181 16.0189 13.0867 15.3742 14.3754 14.0848C15.6641 12.7955 16.3085 11.2261 16.3085 9.37676C16.3085 8.413 16.123 7.52087 15.752 6.70038C15.381 5.87988 14.8701 5.16357 14.2192 4.55145L15.0588 3.71142C15.8008 4.42773 16.3898 5.27102 16.8259 6.24129C17.262 7.21156 17.48 8.25672 17.48 9.37676C17.48 10.4577 17.275 11.4736 16.865 12.4243C16.4549 13.3751 15.8984 14.2021 15.1955 14.9053C14.4926 15.6086 13.666 16.1654 12.7157 16.5756C11.7655 16.9859 10.7501 17.191 9.6697 17.191Z" fill="#DE001A"/>
</svg>
