<svg width="15" height="16" viewBox="0 0 15 16" fill="none" xmlns="http://www.w3.org/2000/svg">
<path d="M4.84639 11.1353C4.31268 11.1353 3.86359 10.953 3.49911 10.5883C3.13462 10.2237 2.95238 9.77433 2.95238 9.24036C2.95238 8.70639 3.13462 8.25707 3.49911 7.8924C3.86359 7.52774 4.31268 7.3454 4.84639 7.3454C5.38009 7.3454 5.82919 7.52774 6.19367 7.8924C6.55815 8.25707 6.74039 8.70639 6.74039 9.24036C6.74039 9.77433 6.55815 10.2237 6.19367 10.5883C5.82919 10.953 5.38009 11.1353 4.84639 11.1353ZM1.46842 15.6285C1.15601 15.6285 0.882649 15.5113 0.648339 15.2769C0.41403 15.0424 0.296875 14.7689 0.296875 14.4564V2.34428C0.296875 2.03171 0.41403 1.75821 0.648339 1.52378C0.882649 1.28935 1.15601 1.17214 1.46842 1.17214H2.7376V0H4.00678V1.17214H10.6455V0H11.9147V1.17214H13.1839C13.4963 1.17214 13.7697 1.28935 14.004 1.52378C14.2383 1.75821 14.3555 2.03171 14.3555 2.34428V14.4564C14.3555 14.7689 14.2383 15.0424 14.004 15.2769C13.7697 15.5113 13.4963 15.6285 13.1839 15.6285H1.46842ZM1.46842 14.4564H13.1839V6.05605H1.46842V14.4564ZM1.46842 4.88391H13.1839V2.34428H1.46842V4.88391ZM1.46842 4.88391V2.34428V4.88391Z" fill="#DE001A"/>
</svg>
