<svg width="13" height="16" viewBox="0 0 13 16" fill="none" xmlns="http://www.w3.org/2000/svg">
<path d="M4.375 1.77148V0.708984H8.625V1.77148H4.375ZM5.96875 9.68711H7.03125V5.61419H5.96875V9.68711ZM6.5 15.5663C5.62639 15.5663 4.80295 15.398 4.02969 15.0616C3.25642 14.7251 2.58056 14.2677 2.00208 13.6892C1.42361 13.1107 0.966146 12.4349 0.629688 11.6616C0.293229 10.8883 0.125 10.0649 0.125 9.19128C0.125 8.31767 0.293229 7.49423 0.629688 6.72096C0.966146 5.9477 1.42361 5.27183 2.00208 4.69336C2.58056 4.11489 3.25642 3.65742 4.02969 3.32096C4.80295 2.98451 5.62639 2.81628 6.5 2.81628C7.29097 2.81628 8.03472 2.94909 8.73125 3.21471C9.42778 3.48034 10.0476 3.84926 10.5906 4.32148L11.4937 3.41836L12.2375 4.16211L11.3344 5.06523C11.7594 5.53746 12.1224 6.11003 12.4234 6.78294C12.7245 7.45586 12.875 8.25864 12.875 9.19128C12.875 10.0649 12.7068 10.8883 12.3703 11.6616C12.0339 12.4349 11.5764 13.1107 10.9979 13.6892C10.4194 14.2677 9.74358 14.7251 8.97031 15.0616C8.19705 15.398 7.37361 15.5663 6.5 15.5663ZM6.5 14.5038C7.97569 14.5038 9.23003 13.9873 10.263 12.9543C11.296 11.9213 11.8125 10.667 11.8125 9.19128C11.8125 7.71558 11.296 6.46124 10.263 5.42826C9.23003 4.39527 7.97569 3.87878 6.5 3.87878C5.02431 3.87878 3.76997 4.39527 2.73698 5.42826C1.70399 6.46124 1.1875 7.71558 1.1875 9.19128C1.1875 10.667 1.70399 11.9213 2.73698 12.9543C3.76997 13.9873 5.02431 14.5038 6.5 14.5038Z" fill="#DE001A"/>
</svg>
