<svg width="34" height="34" viewBox="0 0 34 34" fill="none" xmlns="http://www.w3.org/2000/svg">
<path d="M11.1891 29.0413H22.8057V24.5434C22.8057 22.8906 22.245 21.4681 21.1234 20.2757C20.0019 19.0834 18.6266 18.4872 16.9974 18.4872C15.3682 18.4872 13.9929 19.0834 12.8714 20.2757C11.7498 21.4681 11.1891 22.8906 11.1891 24.5434V29.0413ZM16.9974 15.5122C18.6266 15.5122 20.0019 14.916 21.1234 13.7236C22.245 12.5313 22.8057 11.0969 22.8057 9.42051V4.95801H11.1891V9.42051C11.1891 11.0969 11.7498 12.5313 12.8714 13.7236C13.9929 14.916 15.3682 15.5122 16.9974 15.5122ZM5.66406 31.1663V29.0413H9.06406V24.5434C9.06406 22.8906 9.49497 21.3736 10.3568 19.9924C11.2186 18.6111 12.4168 17.6136 13.9516 16.9997C12.4168 16.3858 11.2186 15.3823 10.3568 13.9893C9.49497 12.5962 9.06406 11.0733 9.06406 9.42051V4.95801H5.66406V2.83301H28.3307V4.95801H24.9307V9.42051C24.9307 11.0733 24.4998 12.5962 23.638 13.9893C22.7762 15.3823 21.578 16.3858 20.0432 16.9997C21.578 17.6136 22.7762 18.6111 23.638 19.9924C24.4998 21.3736 24.9307 22.8906 24.9307 24.5434V29.0413H28.3307V31.1663H5.66406Z" fill="black"/>
</svg>
